<mxfile host="app.diagrams.net" modified="2023-10-16T14:38:26.994Z" agent="Mozilla/5.0 (Windows NT 10.0; Win64; x64) AppleWebKit/537.36 (KHTML, like Gecko) Chrome/109.0.0.0 Safari/537.36" etag="SV4xzRvUEVIQD6DdlEFv" version="22.0.4" type="device">
  <diagram id="C5RBs43oDa-KdzZeNtuy" name="Page-1">
    <mxGraphModel dx="3008" dy="2147" grid="1" gridSize="10" guides="1" tooltips="1" connect="1" arrows="1" fold="1" page="1" pageScale="1" pageWidth="827" pageHeight="1169" math="0" shadow="0">
      <root>
        <mxCell id="WIyWlLk6GJQsqaUBKTNV-0" />
        <mxCell id="WIyWlLk6GJQsqaUBKTNV-1" parent="WIyWlLk6GJQsqaUBKTNV-0" />
        <mxCell id="zkfFHV4jXpPFQw0GAbJ--6" value="Cliente" style="swimlane;fontStyle=0;align=center;verticalAlign=top;childLayout=stackLayout;horizontal=1;startSize=26;horizontalStack=0;resizeParent=1;resizeLast=0;collapsible=1;marginBottom=0;rounded=0;shadow=0;strokeWidth=1;fillColor=#fff2cc;strokeColor=#d6b656;" parent="WIyWlLk6GJQsqaUBKTNV-1" vertex="1">
          <mxGeometry x="395" y="205" width="300" height="122" as="geometry">
            <mxRectangle x="130" y="380" width="160" height="26" as="alternateBounds" />
          </mxGeometry>
        </mxCell>
        <mxCell id="kdAsW70PlrFogEJaz6tP-25" value="- quantidade_pedidos:int" style="text;align=left;verticalAlign=top;spacingLeft=4;spacingRight=4;overflow=hidden;rotatable=0;points=[[0,0.5],[1,0.5]];portConstraint=eastwest;rounded=0;" parent="zkfFHV4jXpPFQw0GAbJ--6" vertex="1">
          <mxGeometry y="26" width="300" height="26" as="geometry" />
        </mxCell>
        <mxCell id="b51r0Ibf-gpC-qulpR08-49" value="- endereco:Endereco" style="text;align=left;verticalAlign=top;spacingLeft=4;spacingRight=4;overflow=hidden;rotatable=0;points=[[0,0.5],[1,0.5]];portConstraint=eastwest;rounded=0;" parent="zkfFHV4jXpPFQw0GAbJ--6" vertex="1">
          <mxGeometry y="52" width="300" height="26" as="geometry" />
        </mxCell>
        <mxCell id="zkfFHV4jXpPFQw0GAbJ--9" value="" style="line;html=1;strokeWidth=1;align=left;verticalAlign=middle;spacingTop=-1;spacingLeft=3;spacingRight=3;rotatable=0;labelPosition=right;points=[];portConstraint=eastwest;rounded=0;" parent="zkfFHV4jXpPFQw0GAbJ--6" vertex="1">
          <mxGeometry y="78" width="300" height="18" as="geometry" />
        </mxCell>
        <mxCell id="hOtxBI7cqi8a_a_TEYvA-14" value="+ &lt;&lt;create&gt;&gt; __init__(nome, cpf, telefone, endereco)" style="text;align=left;verticalAlign=top;spacingLeft=4;spacingRight=4;overflow=hidden;rotatable=0;points=[[0,0.5],[1,0.5]];portConstraint=eastwest;rounded=0;" parent="zkfFHV4jXpPFQw0GAbJ--6" vertex="1">
          <mxGeometry y="96" width="300" height="26" as="geometry" />
        </mxCell>
        <mxCell id="zkfFHV4jXpPFQw0GAbJ--13" value="Pessoa" style="swimlane;fontStyle=2;align=center;verticalAlign=top;childLayout=stackLayout;horizontal=1;startSize=26;horizontalStack=0;resizeParent=1;resizeLast=0;collapsible=1;marginBottom=0;rounded=0;shadow=0;strokeWidth=1;fillColor=#fff2cc;strokeColor=#d6b656;" parent="WIyWlLk6GJQsqaUBKTNV-1" vertex="1">
          <mxGeometry x="605" y="-20" width="240" height="138" as="geometry">
            <mxRectangle x="340" y="380" width="170" height="26" as="alternateBounds" />
          </mxGeometry>
        </mxCell>
        <mxCell id="zkfFHV4jXpPFQw0GAbJ--14" value="- nome:str" style="text;align=left;verticalAlign=top;spacingLeft=4;spacingRight=4;overflow=hidden;rotatable=0;points=[[0,0.5],[1,0.5]];portConstraint=eastwest;rounded=0;" parent="zkfFHV4jXpPFQw0GAbJ--13" vertex="1">
          <mxGeometry y="26" width="240" height="26" as="geometry" />
        </mxCell>
        <mxCell id="kdAsW70PlrFogEJaz6tP-0" value="- cpf:str" style="text;align=left;verticalAlign=top;spacingLeft=4;spacingRight=4;overflow=hidden;rotatable=0;points=[[0,0.5],[1,0.5]];portConstraint=eastwest;rounded=0;" parent="zkfFHV4jXpPFQw0GAbJ--13" vertex="1">
          <mxGeometry y="52" width="240" height="26" as="geometry" />
        </mxCell>
        <mxCell id="kdAsW70PlrFogEJaz6tP-1" value="- telefone:str" style="text;align=left;verticalAlign=top;spacingLeft=4;spacingRight=4;overflow=hidden;rotatable=0;points=[[0,0.5],[1,0.5]];portConstraint=eastwest;rounded=0;" parent="zkfFHV4jXpPFQw0GAbJ--13" vertex="1">
          <mxGeometry y="78" width="240" height="26" as="geometry" />
        </mxCell>
        <mxCell id="zkfFHV4jXpPFQw0GAbJ--15" value="" style="line;html=1;strokeWidth=1;align=left;verticalAlign=middle;spacingTop=-1;spacingLeft=3;spacingRight=3;rotatable=0;labelPosition=right;points=[];portConstraint=eastwest;rounded=0;" parent="zkfFHV4jXpPFQw0GAbJ--13" vertex="1">
          <mxGeometry y="104" width="240" height="8" as="geometry" />
        </mxCell>
        <mxCell id="hOtxBI7cqi8a_a_TEYvA-12" value="+ &lt;&lt;create&gt;&gt; __init__(nome, cpf, telefone)" style="text;align=left;verticalAlign=top;spacingLeft=4;spacingRight=4;overflow=hidden;rotatable=0;points=[[0,0.5],[1,0.5]];portConstraint=eastwest;rounded=0;" parent="zkfFHV4jXpPFQw0GAbJ--13" vertex="1">
          <mxGeometry y="112" width="240" height="26" as="geometry" />
        </mxCell>
        <mxCell id="34jW8y6ZJVeA6K0mkwZz-12" style="edgeStyle=orthogonalEdgeStyle;rounded=0;orthogonalLoop=1;jettySize=auto;html=1;entryX=0;entryY=0.5;entryDx=0;entryDy=0;endArrow=none;endFill=0;startArrow=open;startFill=0;" parent="WIyWlLk6GJQsqaUBKTNV-1" source="zkfFHV4jXpPFQw0GAbJ--17" target="34jW8y6ZJVeA6K0mkwZz-9" edge="1">
          <mxGeometry relative="1" as="geometry" />
        </mxCell>
        <mxCell id="zkfFHV4jXpPFQw0GAbJ--17" value="Funcionario" style="swimlane;fontStyle=2;align=center;verticalAlign=top;childLayout=stackLayout;horizontal=1;startSize=26;horizontalStack=0;resizeParent=1;resizeLast=0;collapsible=1;marginBottom=0;rounded=0;shadow=0;strokeWidth=1;fillColor=#fff2cc;strokeColor=#d6b656;" parent="WIyWlLk6GJQsqaUBKTNV-1" vertex="1">
          <mxGeometry x="725" y="180" width="280" height="140" as="geometry">
            <mxRectangle x="550" y="140" width="160" height="26" as="alternateBounds" />
          </mxGeometry>
        </mxCell>
        <mxCell id="zkfFHV4jXpPFQw0GAbJ--18" value="- salario:float" style="text;align=left;verticalAlign=top;spacingLeft=4;spacingRight=4;overflow=hidden;rotatable=0;points=[[0,0.5],[1,0.5]];portConstraint=eastwest;rounded=0;" parent="zkfFHV4jXpPFQw0GAbJ--17" vertex="1">
          <mxGeometry y="26" width="280" height="26" as="geometry" />
        </mxCell>
        <mxCell id="zkfFHV4jXpPFQw0GAbJ--23" value="" style="line;html=1;strokeWidth=1;align=left;verticalAlign=middle;spacingTop=-1;spacingLeft=3;spacingRight=3;rotatable=0;labelPosition=right;points=[];portConstraint=eastwest;rounded=0;" parent="zkfFHV4jXpPFQw0GAbJ--17" vertex="1">
          <mxGeometry y="52" width="280" height="8" as="geometry" />
        </mxCell>
        <mxCell id="hOtxBI7cqi8a_a_TEYvA-13" value="+ &lt;&lt;create&gt;&gt; __init__(nome, cpf, telefone, salario)" style="text;align=left;verticalAlign=top;spacingLeft=4;spacingRight=4;overflow=hidden;rotatable=0;points=[[0,0.5],[1,0.5]];portConstraint=eastwest;rounded=0;" parent="zkfFHV4jXpPFQw0GAbJ--17" vertex="1">
          <mxGeometry y="60" width="280" height="26" as="geometry" />
        </mxCell>
        <mxCell id="QIKu43iznkj8tfLvrIEL-0" value="Produto" style="swimlane;fontStyle=2;align=center;verticalAlign=top;childLayout=stackLayout;horizontal=1;startSize=26;horizontalStack=0;resizeParent=1;resizeLast=0;collapsible=1;marginBottom=0;rounded=0;shadow=0;strokeWidth=1;fillColor=#fff2cc;strokeColor=#d6b656;" parent="WIyWlLk6GJQsqaUBKTNV-1" vertex="1">
          <mxGeometry x="-1400" y="86" width="370" height="140" as="geometry">
            <mxRectangle x="550" y="140" width="160" height="26" as="alternateBounds" />
          </mxGeometry>
        </mxCell>
        <mxCell id="QIKu43iznkj8tfLvrIEL-1" value="- preco_venda:float" style="text;align=left;verticalAlign=top;spacingLeft=4;spacingRight=4;overflow=hidden;rotatable=0;points=[[0,0.5],[1,0.5]];portConstraint=eastwest;rounded=0;" parent="QIKu43iznkj8tfLvrIEL-0" vertex="1">
          <mxGeometry y="26" width="370" height="26" as="geometry" />
        </mxCell>
        <mxCell id="b51r0Ibf-gpC-qulpR08-58" value="- preco_compra:float" style="text;align=left;verticalAlign=top;spacingLeft=4;spacingRight=4;overflow=hidden;rotatable=0;points=[[0,0.5],[1,0.5]];portConstraint=eastwest;rounded=0;" parent="QIKu43iznkj8tfLvrIEL-0" vertex="1">
          <mxGeometry y="52" width="370" height="26" as="geometry" />
        </mxCell>
        <mxCell id="b51r0Ibf-gpC-qulpR08-57" value="- quantidade:int" style="text;align=left;verticalAlign=top;spacingLeft=4;spacingRight=4;overflow=hidden;rotatable=0;points=[[0,0.5],[1,0.5]];portConstraint=eastwest;rounded=0;" parent="QIKu43iznkj8tfLvrIEL-0" vertex="1">
          <mxGeometry y="78" width="370" height="26" as="geometry" />
        </mxCell>
        <mxCell id="QIKu43iznkj8tfLvrIEL-6" value="" style="line;html=1;strokeWidth=1;align=left;verticalAlign=middle;spacingTop=-1;spacingLeft=3;spacingRight=3;rotatable=0;labelPosition=right;points=[];portConstraint=eastwest;rounded=0;" parent="QIKu43iznkj8tfLvrIEL-0" vertex="1">
          <mxGeometry y="104" width="370" height="8" as="geometry" />
        </mxCell>
        <mxCell id="hOtxBI7cqi8a_a_TEYvA-26" value="+ &lt;&lt;create&gt;&gt; __init__(preco_venda, preco_compra, quantidade)" style="text;align=left;verticalAlign=top;spacingLeft=4;spacingRight=4;overflow=hidden;rotatable=0;points=[[0,0.5],[1,0.5]];portConstraint=eastwest;rounded=0;" parent="QIKu43iznkj8tfLvrIEL-0" vertex="1">
          <mxGeometry y="112" width="370" height="26" as="geometry" />
        </mxCell>
        <mxCell id="QIKu43iznkj8tfLvrIEL-9" value="Gerente" style="swimlane;fontStyle=0;align=center;verticalAlign=top;childLayout=stackLayout;horizontal=1;startSize=26;horizontalStack=0;resizeParent=1;resizeLast=0;collapsible=1;marginBottom=0;rounded=0;shadow=0;strokeWidth=1;fillColor=#fff2cc;strokeColor=#d6b656;" parent="WIyWlLk6GJQsqaUBKTNV-1" vertex="1">
          <mxGeometry x="240" y="478" width="310" height="134" as="geometry">
            <mxRectangle x="550" y="140" width="160" height="26" as="alternateBounds" />
          </mxGeometry>
        </mxCell>
        <mxCell id="QIKu43iznkj8tfLvrIEL-12" value="" style="line;html=1;strokeWidth=1;align=left;verticalAlign=middle;spacingTop=-1;spacingLeft=3;spacingRight=3;rotatable=0;labelPosition=right;points=[];portConstraint=eastwest;rounded=0;" parent="QIKu43iznkj8tfLvrIEL-9" vertex="1">
          <mxGeometry y="26" width="310" height="8" as="geometry" />
        </mxCell>
        <mxCell id="hOtxBI7cqi8a_a_TEYvA-41" value="+ &lt;&lt;create&gt;&gt; __init__(nome, cpf, telefone, salario)" style="text;align=left;verticalAlign=top;spacingLeft=4;spacingRight=4;overflow=hidden;rotatable=0;points=[[0,0.5],[1,0.5]];portConstraint=eastwest;rounded=0;fontStyle=0" parent="QIKu43iznkj8tfLvrIEL-9" vertex="1">
          <mxGeometry y="34" width="310" height="26" as="geometry" />
        </mxCell>
        <mxCell id="QIKu43iznkj8tfLvrIEL-15" value="Pizzaiolo" style="swimlane;fontStyle=0;align=center;verticalAlign=top;childLayout=stackLayout;horizontal=1;startSize=26;horizontalStack=0;resizeParent=1;resizeLast=0;collapsible=1;marginBottom=0;rounded=0;shadow=0;strokeWidth=1;fillColor=#fff2cc;strokeColor=#d6b656;" parent="WIyWlLk6GJQsqaUBKTNV-1" vertex="1">
          <mxGeometry x="564" y="478" width="286" height="132" as="geometry">
            <mxRectangle x="550" y="140" width="160" height="26" as="alternateBounds" />
          </mxGeometry>
        </mxCell>
        <mxCell id="QIKu43iznkj8tfLvrIEL-18" value="" style="line;html=1;strokeWidth=1;align=left;verticalAlign=middle;spacingTop=-1;spacingLeft=3;spacingRight=3;rotatable=0;labelPosition=right;points=[];portConstraint=eastwest;rounded=0;" parent="QIKu43iznkj8tfLvrIEL-15" vertex="1">
          <mxGeometry y="26" width="286" height="8" as="geometry" />
        </mxCell>
        <mxCell id="hOtxBI7cqi8a_a_TEYvA-42" value="+ &lt;&lt;create&gt;&gt; __init__(nome, cpf, telefone, salario)" style="text;align=left;verticalAlign=top;spacingLeft=4;spacingRight=4;overflow=hidden;rotatable=0;points=[[0,0.5],[1,0.5]];portConstraint=eastwest;rounded=0;" parent="QIKu43iznkj8tfLvrIEL-15" vertex="1">
          <mxGeometry y="34" width="286" height="26" as="geometry" />
        </mxCell>
        <mxCell id="QIKu43iznkj8tfLvrIEL-21" value="Entregador" style="swimlane;fontStyle=0;align=center;verticalAlign=top;childLayout=stackLayout;horizontal=1;startSize=26;horizontalStack=0;resizeParent=1;resizeLast=0;collapsible=1;marginBottom=0;rounded=0;shadow=0;strokeWidth=1;fillColor=#fff2cc;strokeColor=#d6b656;" parent="WIyWlLk6GJQsqaUBKTNV-1" vertex="1">
          <mxGeometry x="870" y="478" width="286" height="132" as="geometry">
            <mxRectangle x="550" y="140" width="160" height="26" as="alternateBounds" />
          </mxGeometry>
        </mxCell>
        <mxCell id="QIKu43iznkj8tfLvrIEL-24" value="" style="line;html=1;strokeWidth=1;align=left;verticalAlign=middle;spacingTop=-1;spacingLeft=3;spacingRight=3;rotatable=0;labelPosition=right;points=[];portConstraint=eastwest;rounded=0;" parent="QIKu43iznkj8tfLvrIEL-21" vertex="1">
          <mxGeometry y="26" width="286" height="8" as="geometry" />
        </mxCell>
        <mxCell id="hOtxBI7cqi8a_a_TEYvA-43" value="+ &lt;&lt;create&gt;&gt; __init__(nome, cpf, telefone, salario)" style="text;align=left;verticalAlign=top;spacingLeft=4;spacingRight=4;overflow=hidden;rotatable=0;points=[[0,0.5],[1,0.5]];portConstraint=eastwest;rounded=0;" parent="QIKu43iznkj8tfLvrIEL-21" vertex="1">
          <mxGeometry y="34" width="286" height="26" as="geometry" />
        </mxCell>
        <mxCell id="QIKu43iznkj8tfLvrIEL-27" value="Atendente" style="swimlane;fontStyle=0;align=center;verticalAlign=top;childLayout=stackLayout;horizontal=1;startSize=26;horizontalStack=0;resizeParent=1;resizeLast=0;collapsible=1;marginBottom=0;rounded=0;shadow=0;strokeWidth=1;fillColor=#fff2cc;strokeColor=#d6b656;" parent="WIyWlLk6GJQsqaUBKTNV-1" vertex="1">
          <mxGeometry x="1170" y="478" width="285" height="132" as="geometry">
            <mxRectangle x="550" y="140" width="160" height="26" as="alternateBounds" />
          </mxGeometry>
        </mxCell>
        <mxCell id="ZCnHrs2GG1sbxFjUJOWf-37" value="- vendas_mes:int" style="text;align=left;verticalAlign=top;spacingLeft=4;spacingRight=4;overflow=hidden;rotatable=0;points=[[0,0.5],[1,0.5]];portConstraint=eastwest;rounded=0;" parent="QIKu43iznkj8tfLvrIEL-27" vertex="1">
          <mxGeometry y="26" width="285" height="26" as="geometry" />
        </mxCell>
        <mxCell id="QIKu43iznkj8tfLvrIEL-30" value="" style="line;html=1;strokeWidth=1;align=left;verticalAlign=middle;spacingTop=-1;spacingLeft=3;spacingRight=3;rotatable=0;labelPosition=right;points=[];portConstraint=eastwest;rounded=0;" parent="QIKu43iznkj8tfLvrIEL-27" vertex="1">
          <mxGeometry y="52" width="285" height="8" as="geometry" />
        </mxCell>
        <mxCell id="hOtxBI7cqi8a_a_TEYvA-44" value="+ &lt;&lt;create&gt;&gt; __init__(nome, cpf, telefone, salario)" style="text;align=left;verticalAlign=top;spacingLeft=4;spacingRight=4;overflow=hidden;rotatable=0;points=[[0,0.5],[1,0.5]];portConstraint=eastwest;rounded=0;" parent="QIKu43iznkj8tfLvrIEL-27" vertex="1">
          <mxGeometry y="60" width="285" height="26" as="geometry" />
        </mxCell>
        <mxCell id="QIKu43iznkj8tfLvrIEL-36" value="Pizza" style="swimlane;fontStyle=0;align=center;verticalAlign=top;childLayout=stackLayout;horizontal=1;startSize=26;horizontalStack=0;resizeParent=1;resizeLast=0;collapsible=1;marginBottom=0;rounded=0;shadow=0;strokeWidth=1;fillColor=#fff2cc;strokeColor=#d6b656;" parent="WIyWlLk6GJQsqaUBKTNV-1" vertex="1">
          <mxGeometry x="-1410" y="300" width="240" height="114" as="geometry">
            <mxRectangle x="550" y="140" width="160" height="26" as="alternateBounds" />
          </mxGeometry>
        </mxCell>
        <mxCell id="QIKu43iznkj8tfLvrIEL-37" value="- sabor:Sabor" style="text;align=left;verticalAlign=top;spacingLeft=4;spacingRight=4;overflow=hidden;rotatable=0;points=[[0,0.5],[1,0.5]];portConstraint=eastwest;rounded=0;" parent="QIKu43iznkj8tfLvrIEL-36" vertex="1">
          <mxGeometry y="26" width="240" height="26" as="geometry" />
        </mxCell>
        <mxCell id="QIKu43iznkj8tfLvrIEL-39" value="" style="line;html=1;strokeWidth=1;align=left;verticalAlign=middle;spacingTop=-1;spacingLeft=3;spacingRight=3;rotatable=0;labelPosition=right;points=[];portConstraint=eastwest;rounded=0;" parent="QIKu43iznkj8tfLvrIEL-36" vertex="1">
          <mxGeometry y="52" width="240" height="8" as="geometry" />
        </mxCell>
        <mxCell id="hOtxBI7cqi8a_a_TEYvA-27" value="+ &lt;&lt;create&gt;&gt; __init__(preco, sabor)" style="text;align=left;verticalAlign=top;spacingLeft=4;spacingRight=4;overflow=hidden;rotatable=0;points=[[0,0.5],[1,0.5]];portConstraint=eastwest;rounded=0;" parent="QIKu43iznkj8tfLvrIEL-36" vertex="1">
          <mxGeometry y="60" width="240" height="26" as="geometry" />
        </mxCell>
        <mxCell id="QIKu43iznkj8tfLvrIEL-42" value="Bebida" style="swimlane;fontStyle=0;align=center;verticalAlign=top;childLayout=stackLayout;horizontal=1;startSize=26;horizontalStack=0;resizeParent=1;resizeLast=0;collapsible=1;marginBottom=0;rounded=0;shadow=0;strokeWidth=1;fillColor=#fff2cc;strokeColor=#d6b656;" parent="WIyWlLk6GJQsqaUBKTNV-1" vertex="1">
          <mxGeometry x="-1080" y="290" width="230" height="112" as="geometry">
            <mxRectangle x="550" y="140" width="160" height="26" as="alternateBounds" />
          </mxGeometry>
        </mxCell>
        <mxCell id="QIKu43iznkj8tfLvrIEL-43" value="- tipo:Tipo_Bebida" style="text;align=left;verticalAlign=top;spacingLeft=4;spacingRight=4;overflow=hidden;rotatable=0;points=[[0,0.5],[1,0.5]];portConstraint=eastwest;rounded=0;" parent="QIKu43iznkj8tfLvrIEL-42" vertex="1">
          <mxGeometry y="26" width="230" height="26" as="geometry" />
        </mxCell>
        <mxCell id="QIKu43iznkj8tfLvrIEL-45" value="" style="line;html=1;strokeWidth=1;align=left;verticalAlign=middle;spacingTop=-1;spacingLeft=3;spacingRight=3;rotatable=0;labelPosition=right;points=[];portConstraint=eastwest;rounded=0;" parent="QIKu43iznkj8tfLvrIEL-42" vertex="1">
          <mxGeometry y="52" width="230" height="8" as="geometry" />
        </mxCell>
        <mxCell id="hOtxBI7cqi8a_a_TEYvA-28" value="+ &lt;&lt;create&gt;&gt; __init__(preco, tipo)" style="text;align=left;verticalAlign=top;spacingLeft=4;spacingRight=4;overflow=hidden;rotatable=0;points=[[0,0.5],[1,0.5]];portConstraint=eastwest;rounded=0;" parent="QIKu43iznkj8tfLvrIEL-42" vertex="1">
          <mxGeometry y="60" width="230" height="26" as="geometry" />
        </mxCell>
        <mxCell id="QIKu43iznkj8tfLvrIEL-48" value="Sabor (enum)" style="swimlane;fontStyle=0;align=center;verticalAlign=top;childLayout=stackLayout;horizontal=1;startSize=26;horizontalStack=0;resizeParent=1;resizeLast=0;collapsible=1;marginBottom=0;rounded=0;shadow=0;strokeWidth=1;fillColor=#fff2cc;strokeColor=#d6b656;" parent="WIyWlLk6GJQsqaUBKTNV-1" vertex="1">
          <mxGeometry x="-1370" y="456" width="160" height="234" as="geometry">
            <mxRectangle x="550" y="140" width="160" height="26" as="alternateBounds" />
          </mxGeometry>
        </mxCell>
        <mxCell id="QIKu43iznkj8tfLvrIEL-49" value="CALABRESA" style="text;align=left;verticalAlign=top;spacingLeft=4;spacingRight=4;overflow=hidden;rotatable=0;points=[[0,0.5],[1,0.5]];portConstraint=eastwest;rounded=0;" parent="QIKu43iznkj8tfLvrIEL-48" vertex="1">
          <mxGeometry y="26" width="160" height="26" as="geometry" />
        </mxCell>
        <mxCell id="QIKu43iznkj8tfLvrIEL-50" value="CALABRESA_CEBOLA" style="text;align=left;verticalAlign=top;spacingLeft=4;spacingRight=4;overflow=hidden;rotatable=0;points=[[0,0.5],[1,0.5]];portConstraint=eastwest;rounded=0;shadow=0;html=0;" parent="QIKu43iznkj8tfLvrIEL-48" vertex="1">
          <mxGeometry y="52" width="160" height="26" as="geometry" />
        </mxCell>
        <mxCell id="QIKu43iznkj8tfLvrIEL-52" value="QUATRO_QUEIJOS" style="text;align=left;verticalAlign=top;spacingLeft=4;spacingRight=4;overflow=hidden;rotatable=0;points=[[0,0.5],[1,0.5]];portConstraint=eastwest;rounded=0;" parent="QIKu43iznkj8tfLvrIEL-48" vertex="1">
          <mxGeometry y="78" width="160" height="26" as="geometry" />
        </mxCell>
        <mxCell id="QIKu43iznkj8tfLvrIEL-53" value="PORTUGUESA" style="text;align=left;verticalAlign=top;spacingLeft=4;spacingRight=4;overflow=hidden;rotatable=0;points=[[0,0.5],[1,0.5]];portConstraint=eastwest;rounded=0;" parent="QIKu43iznkj8tfLvrIEL-48" vertex="1">
          <mxGeometry y="104" width="160" height="26" as="geometry" />
        </mxCell>
        <mxCell id="kdAsW70PlrFogEJaz6tP-5" value="MUCARELA" style="text;align=left;verticalAlign=top;spacingLeft=4;spacingRight=4;overflow=hidden;rotatable=0;points=[[0,0.5],[1,0.5]];portConstraint=eastwest;rounded=0;" parent="QIKu43iznkj8tfLvrIEL-48" vertex="1">
          <mxGeometry y="130" width="160" height="26" as="geometry" />
        </mxCell>
        <mxCell id="kdAsW70PlrFogEJaz6tP-6" value="MARGUERITA" style="text;align=left;verticalAlign=top;spacingLeft=4;spacingRight=4;overflow=hidden;rotatable=0;points=[[0,0.5],[1,0.5]];portConstraint=eastwest;rounded=0;" parent="QIKu43iznkj8tfLvrIEL-48" vertex="1">
          <mxGeometry y="156" width="160" height="26" as="geometry" />
        </mxCell>
        <mxCell id="kdAsW70PlrFogEJaz6tP-7" value="FRANGO_CATUPIRY" style="text;align=left;verticalAlign=top;spacingLeft=4;spacingRight=4;overflow=hidden;rotatable=0;points=[[0,0.5],[1,0.5]];portConstraint=eastwest;rounded=0;" parent="QIKu43iznkj8tfLvrIEL-48" vertex="1">
          <mxGeometry y="182" width="160" height="26" as="geometry" />
        </mxCell>
        <mxCell id="kdAsW70PlrFogEJaz6tP-8" value="NAPOLITANA" style="text;align=left;verticalAlign=top;spacingLeft=4;spacingRight=4;overflow=hidden;rotatable=0;points=[[0,0.5],[1,0.5]];portConstraint=eastwest;rounded=0;" parent="QIKu43iznkj8tfLvrIEL-48" vertex="1">
          <mxGeometry y="208" width="160" height="26" as="geometry" />
        </mxCell>
        <mxCell id="QIKu43iznkj8tfLvrIEL-54" value="Tipo_Bebida (enum)" style="swimlane;fontStyle=0;align=center;verticalAlign=top;childLayout=stackLayout;horizontal=1;startSize=26;horizontalStack=0;resizeParent=1;resizeLast=0;collapsible=1;marginBottom=0;rounded=0;shadow=0;strokeWidth=1;fillColor=#fff2cc;strokeColor=#d6b656;" parent="WIyWlLk6GJQsqaUBKTNV-1" vertex="1">
          <mxGeometry x="-1040" y="456" width="160" height="208" as="geometry">
            <mxRectangle x="550" y="140" width="160" height="26" as="alternateBounds" />
          </mxGeometry>
        </mxCell>
        <mxCell id="QIKu43iznkj8tfLvrIEL-55" value="COCA" style="text;align=left;verticalAlign=top;spacingLeft=4;spacingRight=4;overflow=hidden;rotatable=0;points=[[0,0.5],[1,0.5]];portConstraint=eastwest;rounded=0;" parent="QIKu43iznkj8tfLvrIEL-54" vertex="1">
          <mxGeometry y="26" width="160" height="26" as="geometry" />
        </mxCell>
        <mxCell id="QIKu43iznkj8tfLvrIEL-56" value="GUARANA" style="text;align=left;verticalAlign=top;spacingLeft=4;spacingRight=4;overflow=hidden;rotatable=0;points=[[0,0.5],[1,0.5]];portConstraint=eastwest;rounded=0;shadow=0;html=0;" parent="QIKu43iznkj8tfLvrIEL-54" vertex="1">
          <mxGeometry y="52" width="160" height="26" as="geometry" />
        </mxCell>
        <mxCell id="QIKu43iznkj8tfLvrIEL-58" value="SPRITE" style="text;align=left;verticalAlign=top;spacingLeft=4;spacingRight=4;overflow=hidden;rotatable=0;points=[[0,0.5],[1,0.5]];portConstraint=eastwest;rounded=0;" parent="QIKu43iznkj8tfLvrIEL-54" vertex="1">
          <mxGeometry y="78" width="160" height="26" as="geometry" />
        </mxCell>
        <mxCell id="QIKu43iznkj8tfLvrIEL-59" value="AGUA" style="text;align=left;verticalAlign=top;spacingLeft=4;spacingRight=4;overflow=hidden;rotatable=0;points=[[0,0.5],[1,0.5]];portConstraint=eastwest;rounded=0;" parent="QIKu43iznkj8tfLvrIEL-54" vertex="1">
          <mxGeometry y="104" width="160" height="26" as="geometry" />
        </mxCell>
        <mxCell id="kdAsW70PlrFogEJaz6tP-9" value="AGUA_GAS" style="text;align=left;verticalAlign=top;spacingLeft=4;spacingRight=4;overflow=hidden;rotatable=0;points=[[0,0.5],[1,0.5]];portConstraint=eastwest;rounded=0;" parent="QIKu43iznkj8tfLvrIEL-54" vertex="1">
          <mxGeometry y="130" width="160" height="26" as="geometry" />
        </mxCell>
        <mxCell id="kdAsW70PlrFogEJaz6tP-10" value="VINHO" style="text;align=left;verticalAlign=top;spacingLeft=4;spacingRight=4;overflow=hidden;rotatable=0;points=[[0,0.5],[1,0.5]];portConstraint=eastwest;rounded=0;" parent="QIKu43iznkj8tfLvrIEL-54" vertex="1">
          <mxGeometry y="156" width="160" height="26" as="geometry" />
        </mxCell>
        <mxCell id="kdAsW70PlrFogEJaz6tP-11" value="CERVEJA" style="text;align=left;verticalAlign=top;spacingLeft=4;spacingRight=4;overflow=hidden;rotatable=0;points=[[0,0.5],[1,0.5]];portConstraint=eastwest;rounded=0;" parent="QIKu43iznkj8tfLvrIEL-54" vertex="1">
          <mxGeometry y="182" width="160" height="26" as="geometry" />
        </mxCell>
        <mxCell id="QIKu43iznkj8tfLvrIEL-60" value="Pedido" style="swimlane;fontStyle=0;align=center;verticalAlign=top;childLayout=stackLayout;horizontal=1;startSize=26;horizontalStack=0;resizeParent=1;resizeLast=0;collapsible=1;marginBottom=0;rounded=0;shadow=0;strokeWidth=1;fillColor=#fff2cc;strokeColor=#d6b656;" parent="WIyWlLk6GJQsqaUBKTNV-1" vertex="1">
          <mxGeometry x="-310" y="160" width="340" height="320" as="geometry">
            <mxRectangle x="550" y="140" width="160" height="26" as="alternateBounds" />
          </mxGeometry>
        </mxCell>
        <mxCell id="QIKu43iznkj8tfLvrIEL-61" value="- cliente:Cliente" style="text;align=left;verticalAlign=top;spacingLeft=4;spacingRight=4;overflow=hidden;rotatable=0;points=[[0,0.5],[1,0.5]];portConstraint=eastwest;rounded=0;" parent="QIKu43iznkj8tfLvrIEL-60" vertex="1">
          <mxGeometry y="26" width="340" height="26" as="geometry" />
        </mxCell>
        <mxCell id="kdAsW70PlrFogEJaz6tP-23" value="- produtos:Produto[]" style="text;align=left;verticalAlign=top;spacingLeft=4;spacingRight=4;overflow=hidden;rotatable=0;points=[[0,0.5],[1,0.5]];portConstraint=eastwest;rounded=0;" parent="QIKu43iznkj8tfLvrIEL-60" vertex="1">
          <mxGeometry y="52" width="340" height="26" as="geometry" />
        </mxCell>
        <mxCell id="kdAsW70PlrFogEJaz6tP-2" value="- atendente:Atendente" style="text;align=left;verticalAlign=top;spacingLeft=4;spacingRight=4;overflow=hidden;rotatable=0;points=[[0,0.5],[1,0.5]];portConstraint=eastwest;rounded=0;" parent="QIKu43iznkj8tfLvrIEL-60" vertex="1">
          <mxGeometry y="78" width="340" height="26" as="geometry" />
        </mxCell>
        <mxCell id="kdAsW70PlrFogEJaz6tP-3" value="- valor:float" style="text;align=left;verticalAlign=top;spacingLeft=4;spacingRight=4;overflow=hidden;rotatable=0;points=[[0,0.5],[1,0.5]];portConstraint=eastwest;rounded=0;" parent="QIKu43iznkj8tfLvrIEL-60" vertex="1">
          <mxGeometry y="104" width="340" height="26" as="geometry" />
        </mxCell>
        <mxCell id="QIKu43iznkj8tfLvrIEL-62" value="- forma_pagamento:Forma_de_Pagamento" style="text;align=left;verticalAlign=top;spacingLeft=4;spacingRight=4;overflow=hidden;rotatable=0;points=[[0,0.5],[1,0.5]];portConstraint=eastwest;rounded=0;shadow=0;html=0;" parent="QIKu43iznkj8tfLvrIEL-60" vertex="1">
          <mxGeometry y="130" width="340" height="26" as="geometry" />
        </mxCell>
        <mxCell id="kdAsW70PlrFogEJaz6tP-12" value="- data:Date" style="text;align=left;verticalAlign=top;spacingLeft=4;spacingRight=4;overflow=hidden;rotatable=0;points=[[0,0.5],[1,0.5]];portConstraint=eastwest;rounded=0;" parent="QIKu43iznkj8tfLvrIEL-60" vertex="1">
          <mxGeometry y="156" width="340" height="26" as="geometry" />
        </mxCell>
        <mxCell id="kdAsW70PlrFogEJaz6tP-22" value="- entregue:bool" style="text;align=left;verticalAlign=top;spacingLeft=4;spacingRight=4;overflow=hidden;rotatable=0;points=[[0,0.5],[1,0.5]];portConstraint=eastwest;rounded=0;" parent="QIKu43iznkj8tfLvrIEL-60" vertex="1">
          <mxGeometry y="182" width="340" height="26" as="geometry" />
        </mxCell>
        <mxCell id="ZCnHrs2GG1sbxFjUJOWf-102" value="- codigo:int" style="text;align=left;verticalAlign=top;spacingLeft=4;spacingRight=4;overflow=hidden;rotatable=0;points=[[0,0.5],[1,0.5]];portConstraint=eastwest;rounded=0;" parent="QIKu43iznkj8tfLvrIEL-60" vertex="1">
          <mxGeometry y="208" width="340" height="26" as="geometry" />
        </mxCell>
        <mxCell id="QIKu43iznkj8tfLvrIEL-63" value="" style="line;html=1;strokeWidth=1;align=left;verticalAlign=middle;spacingTop=-1;spacingLeft=3;spacingRight=3;rotatable=0;labelPosition=right;points=[];portConstraint=eastwest;rounded=0;" parent="QIKu43iznkj8tfLvrIEL-60" vertex="1">
          <mxGeometry y="234" width="340" height="8" as="geometry" />
        </mxCell>
        <mxCell id="hOtxBI7cqi8a_a_TEYvA-33" value="+ &lt;&lt;create&gt;&gt; __init__(cliente, atendente, forma_pagamento)" style="text;align=left;verticalAlign=top;spacingLeft=4;spacingRight=4;overflow=hidden;rotatable=0;points=[[0,0.5],[1,0.5]];portConstraint=eastwest;rounded=0;" parent="QIKu43iznkj8tfLvrIEL-60" vertex="1">
          <mxGeometry y="242" width="340" height="26" as="geometry" />
        </mxCell>
        <mxCell id="hOtxBI7cqi8a_a_TEYvA-34" value="+ adicionar_produto(produto:Produto)" style="text;align=left;verticalAlign=top;spacingLeft=4;spacingRight=4;overflow=hidden;rotatable=0;points=[[0,0.5],[1,0.5]];portConstraint=eastwest;rounded=0;" parent="QIKu43iznkj8tfLvrIEL-60" vertex="1">
          <mxGeometry y="268" width="340" height="26" as="geometry" />
        </mxCell>
        <mxCell id="hOtxBI7cqi8a_a_TEYvA-35" value="+ calcula_preco()" style="text;align=left;verticalAlign=top;spacingLeft=4;spacingRight=4;overflow=hidden;rotatable=0;points=[[0,0.5],[1,0.5]];portConstraint=eastwest;rounded=0;" parent="QIKu43iznkj8tfLvrIEL-60" vertex="1">
          <mxGeometry y="294" width="340" height="26" as="geometry" />
        </mxCell>
        <mxCell id="QIKu43iznkj8tfLvrIEL-68" value="Forma_de_pagamento (enum)" style="swimlane;fontStyle=0;align=center;verticalAlign=top;childLayout=stackLayout;horizontal=1;startSize=26;horizontalStack=0;resizeParent=1;resizeLast=0;collapsible=1;marginBottom=0;rounded=0;shadow=0;strokeWidth=1;fillColor=#fff2cc;strokeColor=#d6b656;" parent="WIyWlLk6GJQsqaUBKTNV-1" vertex="1">
          <mxGeometry x="-300" y="585" width="220" height="140" as="geometry">
            <mxRectangle x="550" y="140" width="160" height="26" as="alternateBounds" />
          </mxGeometry>
        </mxCell>
        <mxCell id="QIKu43iznkj8tfLvrIEL-69" value="CARTAO DEBITO" style="text;align=left;verticalAlign=top;spacingLeft=4;spacingRight=4;overflow=hidden;rotatable=0;points=[[0,0.5],[1,0.5]];portConstraint=eastwest;rounded=0;" parent="QIKu43iznkj8tfLvrIEL-68" vertex="1">
          <mxGeometry y="26" width="220" height="26" as="geometry" />
        </mxCell>
        <mxCell id="QIKu43iznkj8tfLvrIEL-73" value="CARTAO CREDITO" style="text;align=left;verticalAlign=top;spacingLeft=4;spacingRight=4;overflow=hidden;rotatable=0;points=[[0,0.5],[1,0.5]];portConstraint=eastwest;rounded=0;" parent="QIKu43iznkj8tfLvrIEL-68" vertex="1">
          <mxGeometry y="52" width="220" height="26" as="geometry" />
        </mxCell>
        <mxCell id="QIKu43iznkj8tfLvrIEL-70" value="DINHEIRO" style="text;align=left;verticalAlign=top;spacingLeft=4;spacingRight=4;overflow=hidden;rotatable=0;points=[[0,0.5],[1,0.5]];portConstraint=eastwest;rounded=0;shadow=0;html=0;" parent="QIKu43iznkj8tfLvrIEL-68" vertex="1">
          <mxGeometry y="78" width="220" height="26" as="geometry" />
        </mxCell>
        <mxCell id="QIKu43iznkj8tfLvrIEL-72" value="PIX" style="text;align=left;verticalAlign=top;spacingLeft=4;spacingRight=4;overflow=hidden;rotatable=0;points=[[0,0.5],[1,0.5]];portConstraint=eastwest;rounded=0;" parent="QIKu43iznkj8tfLvrIEL-68" vertex="1">
          <mxGeometry y="104" width="220" height="26" as="geometry" />
        </mxCell>
        <mxCell id="QIKu43iznkj8tfLvrIEL-74" value="" style="endArrow=block;endFill=0;html=1;edgeStyle=orthogonalEdgeStyle;align=left;verticalAlign=top;rounded=0;entryX=0.5;entryY=1;entryDx=0;entryDy=0;exitX=0.5;exitY=0;exitDx=0;exitDy=0;" parent="WIyWlLk6GJQsqaUBKTNV-1" source="zkfFHV4jXpPFQw0GAbJ--6" target="zkfFHV4jXpPFQw0GAbJ--13" edge="1">
          <mxGeometry x="-1" relative="1" as="geometry">
            <mxPoint x="605" y="160" as="sourcePoint" />
            <mxPoint x="765" y="160" as="targetPoint" />
            <Array as="points">
              <mxPoint x="545" y="160" />
              <mxPoint x="725" y="160" />
            </Array>
          </mxGeometry>
        </mxCell>
        <mxCell id="QIKu43iznkj8tfLvrIEL-76" value="" style="endArrow=block;endFill=0;html=1;edgeStyle=orthogonalEdgeStyle;align=left;verticalAlign=top;rounded=0;exitX=0.5;exitY=0;exitDx=0;exitDy=0;entryX=0.5;entryY=1;entryDx=0;entryDy=0;" parent="WIyWlLk6GJQsqaUBKTNV-1" target="zkfFHV4jXpPFQw0GAbJ--13" edge="1">
          <mxGeometry x="-1" relative="1" as="geometry">
            <mxPoint x="875" y="180" as="sourcePoint" />
            <mxPoint x="715" y="120" as="targetPoint" />
            <Array as="points">
              <mxPoint x="875" y="160" />
              <mxPoint x="725" y="160" />
            </Array>
          </mxGeometry>
        </mxCell>
        <mxCell id="QIKu43iznkj8tfLvrIEL-77" value="1...*" style="edgeLabel;resizable=0;html=1;align=left;verticalAlign=bottom;rounded=0;" parent="QIKu43iznkj8tfLvrIEL-76" connectable="0" vertex="1">
          <mxGeometry x="-1" relative="1" as="geometry">
            <mxPoint x="140" y="61" as="offset" />
          </mxGeometry>
        </mxCell>
        <mxCell id="QIKu43iznkj8tfLvrIEL-78" value="" style="endArrow=block;endFill=0;html=1;edgeStyle=orthogonalEdgeStyle;align=left;verticalAlign=top;rounded=0;entryX=0.5;entryY=1;entryDx=0;entryDy=0;" parent="WIyWlLk6GJQsqaUBKTNV-1" source="QIKu43iznkj8tfLvrIEL-21" edge="1">
          <mxGeometry x="-1" relative="1" as="geometry">
            <mxPoint x="705" y="350" as="sourcePoint" />
            <mxPoint x="855" y="320" as="targetPoint" />
            <Array as="points">
              <mxPoint x="990" y="350" />
              <mxPoint x="855" y="350" />
            </Array>
          </mxGeometry>
        </mxCell>
        <mxCell id="QIKu43iznkj8tfLvrIEL-80" value="" style="endArrow=block;endFill=0;html=1;edgeStyle=orthogonalEdgeStyle;align=left;verticalAlign=top;rounded=0;" parent="WIyWlLk6GJQsqaUBKTNV-1" edge="1">
          <mxGeometry x="-1" relative="1" as="geometry">
            <mxPoint x="650" y="478" as="sourcePoint" />
            <mxPoint x="855" y="320" as="targetPoint" />
            <Array as="points">
              <mxPoint x="645" y="350" />
              <mxPoint x="855" y="350" />
            </Array>
          </mxGeometry>
        </mxCell>
        <mxCell id="QIKu43iznkj8tfLvrIEL-82" value="" style="endArrow=block;endFill=0;html=1;edgeStyle=orthogonalEdgeStyle;align=left;verticalAlign=top;rounded=0;exitX=0.5;exitY=0;exitDx=0;exitDy=0;" parent="WIyWlLk6GJQsqaUBKTNV-1" source="QIKu43iznkj8tfLvrIEL-27" edge="1">
          <mxGeometry x="-1" relative="1" as="geometry">
            <mxPoint x="845" y="380" as="sourcePoint" />
            <mxPoint x="855" y="320" as="targetPoint" />
            <Array as="points">
              <mxPoint x="1303" y="478" />
              <mxPoint x="1303" y="440" />
              <mxPoint x="1035" y="440" />
              <mxPoint x="1035" y="350" />
              <mxPoint x="855" y="350" />
            </Array>
          </mxGeometry>
        </mxCell>
        <mxCell id="QIKu43iznkj8tfLvrIEL-84" value="" style="endArrow=block;endFill=0;html=1;edgeStyle=orthogonalEdgeStyle;align=left;verticalAlign=top;rounded=0;exitX=0.5;exitY=0;exitDx=0;exitDy=0;" parent="WIyWlLk6GJQsqaUBKTNV-1" source="QIKu43iznkj8tfLvrIEL-9" edge="1">
          <mxGeometry x="-1" relative="1" as="geometry">
            <mxPoint x="655" y="380" as="sourcePoint" />
            <mxPoint x="855" y="320" as="targetPoint" />
            <Array as="points">
              <mxPoint x="395" y="350" />
              <mxPoint x="855" y="350" />
            </Array>
          </mxGeometry>
        </mxCell>
        <mxCell id="QIKu43iznkj8tfLvrIEL-86" value="" style="endArrow=block;endFill=0;html=1;edgeStyle=orthogonalEdgeStyle;align=left;verticalAlign=top;rounded=0;exitX=0.5;exitY=0;exitDx=0;exitDy=0;" parent="WIyWlLk6GJQsqaUBKTNV-1" source="QIKu43iznkj8tfLvrIEL-36" edge="1">
          <mxGeometry x="-1" relative="1" as="geometry">
            <mxPoint x="-1380" y="226" as="sourcePoint" />
            <mxPoint x="-1120" y="226" as="targetPoint" />
            <Array as="points">
              <mxPoint x="-1290" y="246" />
              <mxPoint x="-1120" y="246" />
            </Array>
          </mxGeometry>
        </mxCell>
        <mxCell id="QIKu43iznkj8tfLvrIEL-88" value="" style="endArrow=block;endFill=0;html=1;edgeStyle=orthogonalEdgeStyle;align=left;verticalAlign=top;rounded=0;exitX=0.5;exitY=0;exitDx=0;exitDy=0;" parent="WIyWlLk6GJQsqaUBKTNV-1" source="QIKu43iznkj8tfLvrIEL-42" edge="1">
          <mxGeometry x="-1" relative="1" as="geometry">
            <mxPoint x="-1080" y="276" as="sourcePoint" />
            <mxPoint x="-1120" y="226" as="targetPoint" />
            <Array as="points">
              <mxPoint x="-960" y="246" />
              <mxPoint x="-1120" y="246" />
            </Array>
          </mxGeometry>
        </mxCell>
        <mxCell id="QIKu43iznkj8tfLvrIEL-90" value="" style="endArrow=none;endFill=0;endSize=24;html=1;rounded=0;entryX=0.5;entryY=1;entryDx=0;entryDy=0;exitX=0.5;exitY=0;exitDx=0;exitDy=0;startArrow=openThin;startFill=0;" parent="WIyWlLk6GJQsqaUBKTNV-1" source="QIKu43iznkj8tfLvrIEL-48" target="QIKu43iznkj8tfLvrIEL-36" edge="1">
          <mxGeometry width="160" relative="1" as="geometry">
            <mxPoint x="-1310" y="426" as="sourcePoint" />
            <mxPoint x="-1150" y="426" as="targetPoint" />
          </mxGeometry>
        </mxCell>
        <mxCell id="QIKu43iznkj8tfLvrIEL-91" value="" style="endArrow=none;endFill=0;endSize=24;html=1;rounded=0;exitX=0.5;exitY=0;exitDx=0;exitDy=0;startArrow=openThin;startFill=0;" parent="WIyWlLk6GJQsqaUBKTNV-1" edge="1">
          <mxGeometry width="160" relative="1" as="geometry">
            <mxPoint x="-950" y="456" as="sourcePoint" />
            <mxPoint x="-950" y="400" as="targetPoint" />
          </mxGeometry>
        </mxCell>
        <mxCell id="QIKu43iznkj8tfLvrIEL-92" value="" style="endArrow=open;startArrow=none;endFill=0;startFill=0;html=1;rounded=0;entryX=0.158;entryY=-0.006;entryDx=0;entryDy=0;entryPerimeter=0;exitX=1.005;exitY=0.034;exitDx=0;exitDy=0;exitPerimeter=0;" parent="WIyWlLk6GJQsqaUBKTNV-1" target="zkfFHV4jXpPFQw0GAbJ--6" edge="1">
          <mxGeometry width="160" relative="1" as="geometry">
            <mxPoint x="30.000000000000274" y="190.00400000000025" as="sourcePoint" />
            <mxPoint x="394.20000000000056" y="190.42599999999982" as="targetPoint" />
            <Array as="points">
              <mxPoint x="442" y="190" />
            </Array>
          </mxGeometry>
        </mxCell>
        <mxCell id="QIKu43iznkj8tfLvrIEL-93" value="" style="endArrow=none;endFill=0;endSize=24;html=1;rounded=0;exitX=0.5;exitY=0;exitDx=0;exitDy=0;startArrow=openThin;startFill=0;" parent="WIyWlLk6GJQsqaUBKTNV-1" source="QIKu43iznkj8tfLvrIEL-68" edge="1">
          <mxGeometry width="160" relative="1" as="geometry">
            <mxPoint x="-190" y="350" as="sourcePoint" />
            <mxPoint x="-190" y="480" as="targetPoint" />
          </mxGeometry>
        </mxCell>
        <mxCell id="kdAsW70PlrFogEJaz6tP-4" value="" style="endArrow=open;startArrow=none;endFill=0;startFill=0;html=1;rounded=0;exitX=1;exitY=0.5;exitDx=0;exitDy=0;" parent="WIyWlLk6GJQsqaUBKTNV-1" source="kdAsW70PlrFogEJaz6tP-3" edge="1">
          <mxGeometry width="160" relative="1" as="geometry">
            <mxPoint x="-96" y="120" as="sourcePoint" />
            <mxPoint x="1140" y="610" as="targetPoint" />
            <Array as="points">
              <mxPoint x="60" y="277" />
              <mxPoint x="60" y="630" />
              <mxPoint x="1140" y="630" />
            </Array>
          </mxGeometry>
        </mxCell>
        <mxCell id="kdAsW70PlrFogEJaz6tP-24" value="" style="endArrow=open;startArrow=diamondThin;endFill=0;startFill=0;html=1;rounded=0;exitX=0.25;exitY=0;exitDx=0;exitDy=0;entryX=0.5;entryY=0;entryDx=0;entryDy=0;jumpSize=10;" parent="WIyWlLk6GJQsqaUBKTNV-1" source="QIKu43iznkj8tfLvrIEL-60" target="QIKu43iznkj8tfLvrIEL-0" edge="1">
          <mxGeometry width="160" relative="1" as="geometry">
            <mxPoint x="-86" y="130" as="sourcePoint" />
            <mxPoint x="1140" y="-110" as="targetPoint" />
            <Array as="points">
              <mxPoint x="-220" y="-220" />
              <mxPoint x="-690" y="-220" />
              <mxPoint x="-1130" y="-220" />
              <mxPoint x="-1140" y="20" />
              <mxPoint x="-1215" y="20" />
              <mxPoint x="-1215" y="50" />
            </Array>
          </mxGeometry>
        </mxCell>
        <mxCell id="kdAsW70PlrFogEJaz6tP-26" value="Pizzaria" style="swimlane;fontStyle=0;align=center;verticalAlign=top;childLayout=stackLayout;horizontal=1;startSize=26;horizontalStack=0;resizeParent=1;resizeLast=0;collapsible=1;marginBottom=0;rounded=0;shadow=0;strokeWidth=1;fillColor=#fff2cc;strokeColor=#d6b656;" parent="WIyWlLk6GJQsqaUBKTNV-1" vertex="1">
          <mxGeometry x="-160" y="-278" width="220" height="190" as="geometry">
            <mxRectangle x="550" y="140" width="160" height="26" as="alternateBounds" />
          </mxGeometry>
        </mxCell>
        <mxCell id="kdAsW70PlrFogEJaz6tP-27" value="- receita:float" style="text;align=left;verticalAlign=top;spacingLeft=4;spacingRight=4;overflow=hidden;rotatable=0;points=[[0,0.5],[1,0.5]];portConstraint=eastwest;rounded=0;" parent="kdAsW70PlrFogEJaz6tP-26" vertex="1">
          <mxGeometry y="26" width="220" height="26" as="geometry" />
        </mxCell>
        <mxCell id="kdAsW70PlrFogEJaz6tP-28" value="- despesas:float&#xa;" style="text;align=left;verticalAlign=top;spacingLeft=4;spacingRight=4;overflow=hidden;rotatable=0;points=[[0,0.5],[1,0.5]];portConstraint=eastwest;rounded=0;" parent="kdAsW70PlrFogEJaz6tP-26" vertex="1">
          <mxGeometry y="52" width="220" height="26" as="geometry" />
        </mxCell>
        <mxCell id="kdAsW70PlrFogEJaz6tP-29" value="- total_salarios:float" style="text;align=left;verticalAlign=top;spacingLeft=4;spacingRight=4;overflow=hidden;rotatable=0;points=[[0,0.5],[1,0.5]];portConstraint=eastwest;rounded=0;" parent="kdAsW70PlrFogEJaz6tP-26" vertex="1">
          <mxGeometry y="78" width="220" height="26" as="geometry" />
        </mxCell>
        <mxCell id="kdAsW70PlrFogEJaz6tP-30" value="- produto_mais_vendido:Produto" style="text;align=left;verticalAlign=top;spacingLeft=4;spacingRight=4;overflow=hidden;rotatable=0;points=[[0,0.5],[1,0.5]];portConstraint=eastwest;rounded=0;" parent="kdAsW70PlrFogEJaz6tP-26" vertex="1">
          <mxGeometry y="104" width="220" height="26" as="geometry" />
        </mxCell>
        <mxCell id="kdAsW70PlrFogEJaz6tP-31" value="- atendende_do_mes:Atendente" style="text;align=left;verticalAlign=top;spacingLeft=4;spacingRight=4;overflow=hidden;rotatable=0;points=[[0,0.5],[1,0.5]];portConstraint=eastwest;rounded=0;" parent="kdAsW70PlrFogEJaz6tP-26" vertex="1">
          <mxGeometry y="130" width="220" height="26" as="geometry" />
        </mxCell>
        <mxCell id="kdAsW70PlrFogEJaz6tP-32" value="" style="line;html=1;strokeWidth=1;align=left;verticalAlign=middle;spacingTop=-1;spacingLeft=3;spacingRight=3;rotatable=0;labelPosition=right;points=[];portConstraint=eastwest;rounded=0;" parent="kdAsW70PlrFogEJaz6tP-26" vertex="1">
          <mxGeometry y="156" width="220" height="8" as="geometry" />
        </mxCell>
        <mxCell id="hOtxBI7cqi8a_a_TEYvA-37" value="+ &lt;&lt;create&gt;&gt; __init__()" style="text;align=left;verticalAlign=top;spacingLeft=4;spacingRight=4;overflow=hidden;rotatable=0;points=[[0,0.5],[1,0.5]];portConstraint=eastwest;rounded=0;" parent="kdAsW70PlrFogEJaz6tP-26" vertex="1">
          <mxGeometry y="164" width="220" height="26" as="geometry" />
        </mxCell>
        <mxCell id="kdAsW70PlrFogEJaz6tP-35" value="" style="endArrow=open;startArrow=none;endFill=0;startFill=0;html=1;rounded=0;entryX=1.001;entryY=0.988;entryDx=0;entryDy=0;entryPerimeter=0;exitX=0;exitY=0;exitDx=0;exitDy=0;" parent="WIyWlLk6GJQsqaUBKTNV-1" source="b51r0Ibf-gpC-qulpR08-28" edge="1">
          <mxGeometry width="160" relative="1" as="geometry">
            <mxPoint x="60" y="-450" as="sourcePoint" />
            <mxPoint x="1380.2850000000008" y="213.6880000000001" as="targetPoint" />
            <Array as="points">
              <mxPoint x="1560" y="-520" />
              <mxPoint x="1560" y="-100" />
              <mxPoint x="1560" y="210" />
            </Array>
          </mxGeometry>
        </mxCell>
        <mxCell id="34jW8y6ZJVeA6K0mkwZz-0" value="Controlador_Pizzaria" style="swimlane;fontStyle=0;align=center;verticalAlign=top;childLayout=stackLayout;horizontal=1;startSize=26;horizontalStack=0;resizeParent=1;resizeLast=0;collapsible=1;marginBottom=0;rounded=0;shadow=0;strokeWidth=1;fillColor=#d5e8d4;strokeColor=#82b366;" parent="WIyWlLk6GJQsqaUBKTNV-1" vertex="1">
          <mxGeometry x="-160" y="-800" width="220" height="482" as="geometry">
            <mxRectangle x="550" y="140" width="160" height="26" as="alternateBounds" />
          </mxGeometry>
        </mxCell>
        <mxCell id="34jW8y6ZJVeA6K0mkwZz-20" value="- pizzaria:Pizzaria" style="text;align=left;verticalAlign=top;spacingLeft=4;spacingRight=4;overflow=hidden;rotatable=0;points=[[0,0.5],[1,0.5]];portConstraint=eastwest;rounded=0;" parent="34jW8y6ZJVeA6K0mkwZz-0" vertex="1">
          <mxGeometry y="26" width="220" height="26" as="geometry" />
        </mxCell>
        <mxCell id="34jW8y6ZJVeA6K0mkwZz-6" value="" style="line;html=1;strokeWidth=1;align=left;verticalAlign=middle;spacingTop=-1;spacingLeft=3;spacingRight=3;rotatable=0;labelPosition=right;points=[];portConstraint=eastwest;rounded=0;" parent="34jW8y6ZJVeA6K0mkwZz-0" vertex="1">
          <mxGeometry y="52" width="220" height="8" as="geometry" />
        </mxCell>
        <mxCell id="hOtxBI7cqi8a_a_TEYvA-38" value="+ &lt;&lt;create&gt;&gt; __init__()" style="text;align=left;verticalAlign=top;spacingLeft=4;spacingRight=4;overflow=hidden;rotatable=0;points=[[0,0.5],[1,0.5]];portConstraint=eastwest;rounded=0;" parent="34jW8y6ZJVeA6K0mkwZz-0" vertex="1">
          <mxGeometry y="60" width="220" height="26" as="geometry" />
        </mxCell>
        <mxCell id="c0PUC_M8s5G9LCttHtRY-37" value="+ inicializa_sistema()&#xa;" style="text;align=left;verticalAlign=top;spacingLeft=4;spacingRight=4;overflow=hidden;rotatable=0;points=[[0,0.5],[1,0.5]];portConstraint=eastwest;rounded=0;" parent="34jW8y6ZJVeA6K0mkwZz-0" vertex="1">
          <mxGeometry y="86" width="220" height="26" as="geometry" />
        </mxCell>
        <mxCell id="KKpDPRDp1r2dlKf29045-21" value="+ mostrar_financeiro()&#xa;" style="text;align=left;verticalAlign=top;spacingLeft=4;spacingRight=4;overflow=hidden;rotatable=0;points=[[0,0.5],[1,0.5]];portConstraint=eastwest;rounded=0;" parent="34jW8y6ZJVeA6K0mkwZz-0" vertex="1">
          <mxGeometry y="112" width="220" height="26" as="geometry" />
        </mxCell>
        <mxCell id="c0PUC_M8s5G9LCttHtRY-30" value="+ pegar_salarios()&#xa;" style="text;align=left;verticalAlign=top;spacingLeft=4;spacingRight=4;overflow=hidden;rotatable=0;points=[[0,0.5],[1,0.5]];portConstraint=eastwest;rounded=0;" parent="34jW8y6ZJVeA6K0mkwZz-0" vertex="1">
          <mxGeometry y="138" width="220" height="26" as="geometry" />
        </mxCell>
        <mxCell id="KKpDPRDp1r2dlKf29045-37" value="1" style="edgeLabel;resizable=0;html=1;align=left;verticalAlign=bottom;rounded=0;" parent="34jW8y6ZJVeA6K0mkwZz-0" connectable="0" vertex="1">
          <mxGeometry y="164" width="220" as="geometry" />
        </mxCell>
        <mxCell id="34jW8y6ZJVeA6K0mkwZz-22" value="+ pegar_despesas()&#xa;" style="text;align=left;verticalAlign=top;spacingLeft=4;spacingRight=4;overflow=hidden;rotatable=0;points=[[0,0.5],[1,0.5]];portConstraint=eastwest;rounded=0;" parent="34jW8y6ZJVeA6K0mkwZz-0" vertex="1">
          <mxGeometry y="164" width="220" height="26" as="geometry" />
        </mxCell>
        <mxCell id="34jW8y6ZJVeA6K0mkwZz-21" value="+ pegar_receitas()&#xa;" style="text;align=left;verticalAlign=top;spacingLeft=4;spacingRight=4;overflow=hidden;rotatable=0;points=[[0,0.5],[1,0.5]];portConstraint=eastwest;rounded=0;" parent="34jW8y6ZJVeA6K0mkwZz-0" vertex="1">
          <mxGeometry y="190" width="220" height="26" as="geometry" />
        </mxCell>
        <mxCell id="c0PUC_M8s5G9LCttHtRY-26" value="+ produto_mais_vendido()&#xa;" style="text;align=left;verticalAlign=top;spacingLeft=4;spacingRight=4;overflow=hidden;rotatable=0;points=[[0,0.5],[1,0.5]];portConstraint=eastwest;rounded=0;" parent="34jW8y6ZJVeA6K0mkwZz-0" vertex="1">
          <mxGeometry y="216" width="220" height="26" as="geometry" />
        </mxCell>
        <mxCell id="c0PUC_M8s5G9LCttHtRY-28" value="+ atendente_do_mes()&#xa;" style="text;align=left;verticalAlign=top;spacingLeft=4;spacingRight=4;overflow=hidden;rotatable=0;points=[[0,0.5],[1,0.5]];portConstraint=eastwest;rounded=0;" parent="34jW8y6ZJVeA6K0mkwZz-0" vertex="1">
          <mxGeometry y="242" width="220" height="26" as="geometry" />
        </mxCell>
        <mxCell id="KKpDPRDp1r2dlKf29045-23" value="+ abre_tela_geral()&#xa;" style="text;align=left;verticalAlign=top;spacingLeft=4;spacingRight=4;overflow=hidden;rotatable=0;points=[[0,0.5],[1,0.5]];portConstraint=eastwest;rounded=0;" parent="34jW8y6ZJVeA6K0mkwZz-0" vertex="1">
          <mxGeometry y="268" width="220" height="26" as="geometry" />
        </mxCell>
        <mxCell id="c0PUC_M8s5G9LCttHtRY-0" value="+ abre_tela()&#xa;" style="text;align=left;verticalAlign=top;spacingLeft=4;spacingRight=4;overflow=hidden;rotatable=0;points=[[0,0.5],[1,0.5]];portConstraint=eastwest;rounded=0;" parent="34jW8y6ZJVeA6K0mkwZz-0" vertex="1">
          <mxGeometry y="294" width="220" height="26" as="geometry" />
        </mxCell>
        <mxCell id="34jW8y6ZJVeA6K0mkwZz-24" value="+ retornar()&#xa;" style="text;align=left;verticalAlign=top;spacingLeft=4;spacingRight=4;overflow=hidden;rotatable=0;points=[[0,0.5],[1,0.5]];portConstraint=eastwest;rounded=0;" parent="34jW8y6ZJVeA6K0mkwZz-0" vertex="1">
          <mxGeometry y="320" width="220" height="26" as="geometry" />
        </mxCell>
        <mxCell id="c0PUC_M8s5G9LCttHtRY-2" value="+ encerra_sistema()&#xa;" style="text;align=left;verticalAlign=top;spacingLeft=4;spacingRight=4;overflow=hidden;rotatable=0;points=[[0,0.5],[1,0.5]];portConstraint=eastwest;rounded=0;" parent="34jW8y6ZJVeA6K0mkwZz-0" vertex="1">
          <mxGeometry y="346" width="220" height="26" as="geometry" />
        </mxCell>
        <mxCell id="KKpDPRDp1r2dlKf29045-24" value="+ pegar_atendentes()&#xa;" style="text;align=left;verticalAlign=top;spacingLeft=4;spacingRight=4;overflow=hidden;rotatable=0;points=[[0,0.5],[1,0.5]];portConstraint=eastwest;rounded=0;" parent="34jW8y6ZJVeA6K0mkwZz-0" vertex="1">
          <mxGeometry y="372" width="220" height="26" as="geometry" />
        </mxCell>
        <mxCell id="KKpDPRDp1r2dlKf29045-25" value="+ pegar_pizzas()&#xa;" style="text;align=left;verticalAlign=top;spacingLeft=4;spacingRight=4;overflow=hidden;rotatable=0;points=[[0,0.5],[1,0.5]];portConstraint=eastwest;rounded=0;" parent="34jW8y6ZJVeA6K0mkwZz-0" vertex="1">
          <mxGeometry y="398" width="220" height="26" as="geometry" />
        </mxCell>
        <mxCell id="KKpDPRDp1r2dlKf29045-26" value="+ pegar_bebidas()&#xa;" style="text;align=left;verticalAlign=top;spacingLeft=4;spacingRight=4;overflow=hidden;rotatable=0;points=[[0,0.5],[1,0.5]];portConstraint=eastwest;rounded=0;" parent="34jW8y6ZJVeA6K0mkwZz-0" vertex="1">
          <mxGeometry y="424" width="220" height="26" as="geometry" />
        </mxCell>
        <mxCell id="KKpDPRDp1r2dlKf29045-27" value="+ pegar_cliente_por_cpf(cpf)&#xa;" style="text;align=left;verticalAlign=top;spacingLeft=4;spacingRight=4;overflow=hidden;rotatable=0;points=[[0,0.5],[1,0.5]];portConstraint=eastwest;rounded=0;" parent="34jW8y6ZJVeA6K0mkwZz-0" vertex="1">
          <mxGeometry y="450" width="220" height="26" as="geometry" />
        </mxCell>
        <mxCell id="34jW8y6ZJVeA6K0mkwZz-9" value="Controlador_Funcionario" style="swimlane;fontStyle=0;align=center;verticalAlign=top;childLayout=stackLayout;horizontal=1;startSize=26;horizontalStack=0;resizeParent=1;resizeLast=0;collapsible=1;marginBottom=0;rounded=0;shadow=0;strokeWidth=1;fillColor=#d5e8d4;strokeColor=#82b366;" parent="WIyWlLk6GJQsqaUBKTNV-1" vertex="1">
          <mxGeometry x="1095" y="30" width="285" height="372" as="geometry">
            <mxRectangle x="550" y="140" width="160" height="26" as="alternateBounds" />
          </mxGeometry>
        </mxCell>
        <mxCell id="34jW8y6ZJVeA6K0mkwZz-10" value="-lista_Funcionarios: Funcionario[]" style="text;align=left;verticalAlign=top;spacingLeft=4;spacingRight=4;overflow=hidden;rotatable=0;points=[[0,0.5],[1,0.5]];portConstraint=eastwest;rounded=0;" parent="34jW8y6ZJVeA6K0mkwZz-9" vertex="1">
          <mxGeometry y="26" width="285" height="26" as="geometry" />
        </mxCell>
        <mxCell id="b51r0Ibf-gpC-qulpR08-54" value="- controlador_funcionario: Controlador_Funcionario" style="text;align=left;verticalAlign=top;spacingLeft=4;spacingRight=4;overflow=hidden;rotatable=0;points=[[0,0.5],[1,0.5]];portConstraint=eastwest;rounded=0;" parent="34jW8y6ZJVeA6K0mkwZz-9" vertex="1">
          <mxGeometry y="52" width="285" height="26" as="geometry" />
        </mxCell>
        <mxCell id="34jW8y6ZJVeA6K0mkwZz-11" value="" style="line;html=1;strokeWidth=1;align=left;verticalAlign=middle;spacingTop=-1;spacingLeft=3;spacingRight=3;rotatable=0;labelPosition=right;points=[];portConstraint=eastwest;rounded=0;" parent="34jW8y6ZJVeA6K0mkwZz-9" vertex="1">
          <mxGeometry y="78" width="285" height="8" as="geometry" />
        </mxCell>
        <mxCell id="hOtxBI7cqi8a_a_TEYvA-10" value="+ &lt;&lt;create&gt;&gt; __init__(controlador_pizzaria)&#xa;)" style="text;align=left;verticalAlign=top;spacingLeft=4;spacingRight=4;overflow=hidden;rotatable=0;points=[[0,0.5],[1,0.5]];portConstraint=eastwest;rounded=0;fontStyle=0" parent="34jW8y6ZJVeA6K0mkwZz-9" vertex="1">
          <mxGeometry y="86" width="285" height="26" as="geometry" />
        </mxCell>
        <mxCell id="ZCnHrs2GG1sbxFjUJOWf-38" value="+ cadastrar_funcionario(funcionario: Funcionario)" style="text;align=left;verticalAlign=top;spacingLeft=4;spacingRight=4;overflow=hidden;rotatable=0;points=[[0,0.5],[1,0.5]];portConstraint=eastwest;rounded=0;" parent="34jW8y6ZJVeA6K0mkwZz-9" vertex="1">
          <mxGeometry y="112" width="285" height="26" as="geometry" />
        </mxCell>
        <mxCell id="ZCnHrs2GG1sbxFjUJOWf-39" value="+ deletar_funcionario(funcionario: Funcionario)" style="text;align=left;verticalAlign=top;spacingLeft=4;spacingRight=4;overflow=hidden;rotatable=0;points=[[0,0.5],[1,0.5]];portConstraint=eastwest;rounded=0;" parent="34jW8y6ZJVeA6K0mkwZz-9" vertex="1">
          <mxGeometry y="138" width="285" height="26" as="geometry" />
        </mxCell>
        <mxCell id="ZCnHrs2GG1sbxFjUJOWf-40" value="+ modificar_funcionario(funcionario: Funcionario)" style="text;align=left;verticalAlign=top;spacingLeft=4;spacingRight=4;overflow=hidden;rotatable=0;points=[[0,0.5],[1,0.5]];portConstraint=eastwest;rounded=0;" parent="34jW8y6ZJVeA6K0mkwZz-9" vertex="1">
          <mxGeometry y="164" width="285" height="26" as="geometry" />
        </mxCell>
        <mxCell id="ZCnHrs2GG1sbxFjUJOWf-41" value="+ ver_funcionarios()" style="text;align=left;verticalAlign=top;spacingLeft=4;spacingRight=4;overflow=hidden;rotatable=0;points=[[0,0.5],[1,0.5]];portConstraint=eastwest;rounded=0;" parent="34jW8y6ZJVeA6K0mkwZz-9" vertex="1">
          <mxGeometry y="190" width="285" height="26" as="geometry" />
        </mxCell>
        <mxCell id="WCnE-8PbPbYzExT8UM0s-0" value="+ busca_funcionario(cpf)&#xa;" style="text;align=left;verticalAlign=top;spacingLeft=4;spacingRight=4;overflow=hidden;rotatable=0;points=[[0,0.5],[1,0.5]];portConstraint=eastwest;rounded=0;" parent="34jW8y6ZJVeA6K0mkwZz-9" vertex="1">
          <mxGeometry y="216" width="285" height="26" as="geometry" />
        </mxCell>
        <mxCell id="WCnE-8PbPbYzExT8UM0s-2" value="+ pegar_salarios()&#xa;" style="text;align=left;verticalAlign=top;spacingLeft=4;spacingRight=4;overflow=hidden;rotatable=0;points=[[0,0.5],[1,0.5]];portConstraint=eastwest;rounded=0;" parent="34jW8y6ZJVeA6K0mkwZz-9" vertex="1">
          <mxGeometry y="242" width="285" height="26" as="geometry" />
        </mxCell>
        <mxCell id="c0PUC_M8s5G9LCttHtRY-25" value="+ atendente_do_mes()&#xa;" style="text;align=left;verticalAlign=top;spacingLeft=4;spacingRight=4;overflow=hidden;rotatable=0;points=[[0,0.5],[1,0.5]];portConstraint=eastwest;rounded=0;" parent="34jW8y6ZJVeA6K0mkwZz-9" vertex="1">
          <mxGeometry y="268" width="285" height="26" as="geometry" />
        </mxCell>
        <mxCell id="KKpDPRDp1r2dlKf29045-17" value="+ abre_tela()&#xa;" style="text;align=left;verticalAlign=top;spacingLeft=4;spacingRight=4;overflow=hidden;rotatable=0;points=[[0,0.5],[1,0.5]];portConstraint=eastwest;rounded=0;" parent="34jW8y6ZJVeA6K0mkwZz-9" vertex="1">
          <mxGeometry y="294" width="285" height="26" as="geometry" />
        </mxCell>
        <mxCell id="KKpDPRDp1r2dlKf29045-18" value="+ retornar()&#xa;" style="text;align=left;verticalAlign=top;spacingLeft=4;spacingRight=4;overflow=hidden;rotatable=0;points=[[0,0.5],[1,0.5]];portConstraint=eastwest;rounded=0;" parent="34jW8y6ZJVeA6K0mkwZz-9" vertex="1">
          <mxGeometry y="320" width="285" height="26" as="geometry" />
        </mxCell>
        <mxCell id="KKpDPRDp1r2dlKf29045-19" value="+ pegar_atendentes()&#xa;" style="text;align=left;verticalAlign=top;spacingLeft=4;spacingRight=4;overflow=hidden;rotatable=0;points=[[0,0.5],[1,0.5]];portConstraint=eastwest;rounded=0;" parent="34jW8y6ZJVeA6K0mkwZz-9" vertex="1">
          <mxGeometry y="346" width="285" height="26" as="geometry" />
        </mxCell>
        <mxCell id="34jW8y6ZJVeA6K0mkwZz-14" style="edgeStyle=orthogonalEdgeStyle;rounded=0;orthogonalLoop=1;jettySize=auto;html=1;entryX=0;entryY=0.308;entryDx=0;entryDy=0;entryPerimeter=0;exitX=0;exitY=0.911;exitDx=0;exitDy=0;exitPerimeter=0;endArrow=open;endFill=0;" parent="WIyWlLk6GJQsqaUBKTNV-1" source="34jW8y6ZJVeA6K0mkwZz-24" target="kdAsW70PlrFogEJaz6tP-28" edge="1">
          <mxGeometry relative="1" as="geometry">
            <mxPoint x="-210" y="-380" as="sourcePoint" />
          </mxGeometry>
        </mxCell>
        <mxCell id="34jW8y6ZJVeA6K0mkwZz-19" style="edgeStyle=orthogonalEdgeStyle;rounded=0;orthogonalLoop=1;jettySize=auto;html=1;entryX=0.304;entryY=0.015;entryDx=0;entryDy=0;entryPerimeter=0;endArrow=open;endFill=0;" parent="WIyWlLk6GJQsqaUBKTNV-1" source="34jW8y6ZJVeA6K0mkwZz-15" target="zkfFHV4jXpPFQw0GAbJ--6" edge="1">
          <mxGeometry relative="1" as="geometry">
            <Array as="points">
              <mxPoint x="442" y="170" />
              <mxPoint x="486" y="170" />
            </Array>
          </mxGeometry>
        </mxCell>
        <mxCell id="34jW8y6ZJVeA6K0mkwZz-15" value="Controlador_Cliente" style="swimlane;fontStyle=0;align=center;verticalAlign=top;childLayout=stackLayout;horizontal=1;startSize=26;horizontalStack=0;resizeParent=1;resizeLast=0;collapsible=1;marginBottom=0;rounded=0;shadow=0;strokeWidth=1;fillColor=#d5e8d4;strokeColor=#82b366;" parent="WIyWlLk6GJQsqaUBKTNV-1" vertex="1">
          <mxGeometry x="320" y="-200" width="244" height="346" as="geometry">
            <mxRectangle x="550" y="140" width="160" height="26" as="alternateBounds" />
          </mxGeometry>
        </mxCell>
        <mxCell id="34jW8y6ZJVeA6K0mkwZz-16" value="-lista_Clientes:Cliente[]" style="text;align=left;verticalAlign=top;spacingLeft=4;spacingRight=4;overflow=hidden;rotatable=0;points=[[0,0.5],[1,0.5]];portConstraint=eastwest;rounded=0;" parent="34jW8y6ZJVeA6K0mkwZz-15" vertex="1">
          <mxGeometry y="26" width="244" height="26" as="geometry" />
        </mxCell>
        <mxCell id="b51r0Ibf-gpC-qulpR08-50" value="- controlador_cliente: Controlador_Cliente" style="text;align=left;verticalAlign=top;spacingLeft=4;spacingRight=4;overflow=hidden;rotatable=0;points=[[0,0.5],[1,0.5]];portConstraint=eastwest;rounded=0;" parent="34jW8y6ZJVeA6K0mkwZz-15" vertex="1">
          <mxGeometry y="52" width="244" height="26" as="geometry" />
        </mxCell>
        <mxCell id="34jW8y6ZJVeA6K0mkwZz-18" value="" style="line;html=1;strokeWidth=1;align=left;verticalAlign=middle;spacingTop=-1;spacingLeft=3;spacingRight=3;rotatable=0;labelPosition=right;points=[];portConstraint=eastwest;rounded=0;" parent="34jW8y6ZJVeA6K0mkwZz-15" vertex="1">
          <mxGeometry y="78" width="244" height="8" as="geometry" />
        </mxCell>
        <mxCell id="hOtxBI7cqi8a_a_TEYvA-21" value="+ &lt;&lt;create&gt;&gt; __init__(controlador_pizzaria&#xa;)" style="text;align=left;verticalAlign=top;spacingLeft=4;spacingRight=4;overflow=hidden;rotatable=0;points=[[0,0.5],[1,0.5]];portConstraint=eastwest;rounded=0;" parent="34jW8y6ZJVeA6K0mkwZz-15" vertex="1">
          <mxGeometry y="86" width="244" height="26" as="geometry" />
        </mxCell>
        <mxCell id="ZCnHrs2GG1sbxFjUJOWf-63" value="+ cadastrar_cliente(cliente: Cliente)" style="text;align=left;verticalAlign=top;spacingLeft=4;spacingRight=4;overflow=hidden;rotatable=0;points=[[0,0.5],[1,0.5]];portConstraint=eastwest;rounded=0;" parent="34jW8y6ZJVeA6K0mkwZz-15" vertex="1">
          <mxGeometry y="112" width="244" height="26" as="geometry" />
        </mxCell>
        <mxCell id="ZCnHrs2GG1sbxFjUJOWf-64" value="+ deletar_cliente(cliente: Cliente)" style="text;align=left;verticalAlign=top;spacingLeft=4;spacingRight=4;overflow=hidden;rotatable=0;points=[[0,0.5],[1,0.5]];portConstraint=eastwest;rounded=0;" parent="34jW8y6ZJVeA6K0mkwZz-15" vertex="1">
          <mxGeometry y="138" width="244" height="26" as="geometry" />
        </mxCell>
        <mxCell id="ZCnHrs2GG1sbxFjUJOWf-66" value="+ modificar_cliente(cliente: Cliente)" style="text;align=left;verticalAlign=top;spacingLeft=4;spacingRight=4;overflow=hidden;rotatable=0;points=[[0,0.5],[1,0.5]];portConstraint=eastwest;rounded=0;" parent="34jW8y6ZJVeA6K0mkwZz-15" vertex="1">
          <mxGeometry y="164" width="244" height="26" as="geometry" />
        </mxCell>
        <mxCell id="ZCnHrs2GG1sbxFjUJOWf-65" value="+ ver_clientes()" style="text;align=left;verticalAlign=top;spacingLeft=4;spacingRight=4;overflow=hidden;rotatable=0;points=[[0,0.5],[1,0.5]];portConstraint=eastwest;rounded=0;" parent="34jW8y6ZJVeA6K0mkwZz-15" vertex="1">
          <mxGeometry y="190" width="244" height="26" as="geometry" />
        </mxCell>
        <mxCell id="KKpDPRDp1r2dlKf29045-16" value="+ busca_clientes(cpf)" style="text;align=left;verticalAlign=top;spacingLeft=4;spacingRight=4;overflow=hidden;rotatable=0;points=[[0,0.5],[1,0.5]];portConstraint=eastwest;rounded=0;" parent="34jW8y6ZJVeA6K0mkwZz-15" vertex="1">
          <mxGeometry y="216" width="244" height="26" as="geometry" />
        </mxCell>
        <mxCell id="c0PUC_M8s5G9LCttHtRY-9" value="+ pega_endereco()" style="text;align=left;verticalAlign=top;spacingLeft=4;spacingRight=4;overflow=hidden;rotatable=0;points=[[0,0.5],[1,0.5]];portConstraint=eastwest;rounded=0;" parent="34jW8y6ZJVeA6K0mkwZz-15" vertex="1">
          <mxGeometry y="242" width="244" height="26" as="geometry" />
        </mxCell>
        <mxCell id="ZCnHrs2GG1sbxFjUJOWf-108" value="+ ver_clientes_fieis()" style="text;align=left;verticalAlign=top;spacingLeft=4;spacingRight=4;overflow=hidden;rotatable=0;points=[[0,0.5],[1,0.5]];portConstraint=eastwest;rounded=0;" parent="34jW8y6ZJVeA6K0mkwZz-15" vertex="1">
          <mxGeometry y="268" width="244" height="26" as="geometry" />
        </mxCell>
        <mxCell id="c0PUC_M8s5G9LCttHtRY-15" value="+ abre_tela()" style="text;align=left;verticalAlign=top;spacingLeft=4;spacingRight=4;overflow=hidden;rotatable=0;points=[[0,0.5],[1,0.5]];portConstraint=eastwest;rounded=0;" parent="34jW8y6ZJVeA6K0mkwZz-15" vertex="1">
          <mxGeometry y="294" width="244" height="26" as="geometry" />
        </mxCell>
        <mxCell id="c0PUC_M8s5G9LCttHtRY-16" value="+ retornar()" style="text;align=left;verticalAlign=top;spacingLeft=4;spacingRight=4;overflow=hidden;rotatable=0;points=[[0,0.5],[1,0.5]];portConstraint=eastwest;rounded=0;" parent="34jW8y6ZJVeA6K0mkwZz-15" vertex="1">
          <mxGeometry y="320" width="244" height="26" as="geometry" />
        </mxCell>
        <mxCell id="34jW8y6ZJVeA6K0mkwZz-23" style="edgeStyle=orthogonalEdgeStyle;rounded=0;orthogonalLoop=1;jettySize=auto;html=1;entryX=0.5;entryY=0;entryDx=0;entryDy=0;exitX=-0.002;exitY=0.337;exitDx=0;exitDy=0;exitPerimeter=0;endArrow=open;endFill=0;" parent="WIyWlLk6GJQsqaUBKTNV-1" source="34jW8y6ZJVeA6K0mkwZz-22" target="34jW8y6ZJVeA6K0mkwZz-33" edge="1">
          <mxGeometry relative="1" as="geometry">
            <mxPoint x="-180" y="-440" as="sourcePoint" />
          </mxGeometry>
        </mxCell>
        <mxCell id="34jW8y6ZJVeA6K0mkwZz-36" style="edgeStyle=orthogonalEdgeStyle;rounded=0;orthogonalLoop=1;jettySize=auto;html=1;entryX=0.5;entryY=0;entryDx=0;entryDy=0;endArrow=open;endFill=0;" parent="WIyWlLk6GJQsqaUBKTNV-1" source="34jW8y6ZJVeA6K0mkwZz-33" target="QIKu43iznkj8tfLvrIEL-60" edge="1">
          <mxGeometry relative="1" as="geometry" />
        </mxCell>
        <mxCell id="34jW8y6ZJVeA6K0mkwZz-33" value="Controlador_Pedido" style="swimlane;fontStyle=0;align=center;verticalAlign=top;childLayout=stackLayout;horizontal=1;startSize=26;horizontalStack=0;resizeParent=1;resizeLast=0;collapsible=1;marginBottom=0;rounded=0;shadow=0;strokeWidth=1;fillColor=#d5e8d4;strokeColor=#82b366;" parent="WIyWlLk6GJQsqaUBKTNV-1" vertex="1">
          <mxGeometry x="-570" y="-172" width="255" height="398" as="geometry">
            <mxRectangle x="550" y="140" width="160" height="26" as="alternateBounds" />
          </mxGeometry>
        </mxCell>
        <mxCell id="b51r0Ibf-gpC-qulpR08-38" value="- lista_Pedidos: Pedido[]" style="text;align=left;verticalAlign=top;spacingLeft=4;spacingRight=4;overflow=hidden;rotatable=0;points=[[0,0.5],[1,0.5]];portConstraint=eastwest;rounded=0;" parent="34jW8y6ZJVeA6K0mkwZz-33" vertex="1">
          <mxGeometry y="26" width="255" height="26" as="geometry" />
        </mxCell>
        <mxCell id="b51r0Ibf-gpC-qulpR08-51" value="- controlador_pedido: Controlador_Pedido" style="text;align=left;verticalAlign=top;spacingLeft=4;spacingRight=4;overflow=hidden;rotatable=0;points=[[0,0.5],[1,0.5]];portConstraint=eastwest;rounded=0;" parent="34jW8y6ZJVeA6K0mkwZz-33" vertex="1">
          <mxGeometry y="52" width="255" height="26" as="geometry" />
        </mxCell>
        <mxCell id="34jW8y6ZJVeA6K0mkwZz-35" value="" style="line;html=1;strokeWidth=1;align=left;verticalAlign=middle;spacingTop=-1;spacingLeft=3;spacingRight=3;rotatable=0;labelPosition=right;points=[];portConstraint=eastwest;rounded=0;" parent="34jW8y6ZJVeA6K0mkwZz-33" vertex="1">
          <mxGeometry y="78" width="255" height="8" as="geometry" />
        </mxCell>
        <mxCell id="hOtxBI7cqi8a_a_TEYvA-25" value="+ &lt;&lt;create&gt;&gt; __init__(controlador_pizzaria)&#xa;)" style="text;align=left;verticalAlign=top;spacingLeft=4;spacingRight=4;overflow=hidden;rotatable=0;points=[[0,0.5],[1,0.5]];portConstraint=eastwest;rounded=0;" parent="34jW8y6ZJVeA6K0mkwZz-33" vertex="1">
          <mxGeometry y="86" width="255" height="26" as="geometry" />
        </mxCell>
        <mxCell id="34jW8y6ZJVeA6K0mkwZz-37" value="+ fazer_pedido(pedido: Pedido)" style="text;align=left;verticalAlign=top;spacingLeft=4;spacingRight=4;overflow=hidden;rotatable=0;points=[[0,0.5],[1,0.5]];portConstraint=eastwest;rounded=0;" parent="34jW8y6ZJVeA6K0mkwZz-33" vertex="1">
          <mxGeometry y="112" width="255" height="26" as="geometry" />
        </mxCell>
        <mxCell id="34jW8y6ZJVeA6K0mkwZz-38" value="+ deletar_pedido(pedido: Pedido)" style="text;align=left;verticalAlign=top;spacingLeft=4;spacingRight=4;overflow=hidden;rotatable=0;points=[[0,0.5],[1,0.5]];portConstraint=eastwest;rounded=0;" parent="34jW8y6ZJVeA6K0mkwZz-33" vertex="1">
          <mxGeometry y="138" width="255" height="26" as="geometry" />
        </mxCell>
        <mxCell id="34jW8y6ZJVeA6K0mkwZz-40" value="+ pegar_pedido(codigo) " style="text;align=left;verticalAlign=top;spacingLeft=4;spacingRight=4;overflow=hidden;rotatable=0;points=[[0,0.5],[1,0.5]];portConstraint=eastwest;rounded=0;" parent="34jW8y6ZJVeA6K0mkwZz-33" vertex="1">
          <mxGeometry y="164" width="255" height="26" as="geometry" />
        </mxCell>
        <mxCell id="KKpDPRDp1r2dlKf29045-8" value="+ ver_pedidos(cliente) " style="text;align=left;verticalAlign=top;spacingLeft=4;spacingRight=4;overflow=hidden;rotatable=0;points=[[0,0.5],[1,0.5]];portConstraint=eastwest;rounded=0;" parent="34jW8y6ZJVeA6K0mkwZz-33" vertex="1">
          <mxGeometry y="190" width="255" height="26" as="geometry" />
        </mxCell>
        <mxCell id="34jW8y6ZJVeA6K0mkwZz-39" value="+ modificar_pedido(pedido: Pedido)" style="text;align=left;verticalAlign=top;spacingLeft=4;spacingRight=4;overflow=hidden;rotatable=0;points=[[0,0.5],[1,0.5]];portConstraint=eastwest;rounded=0;" parent="34jW8y6ZJVeA6K0mkwZz-33" vertex="1">
          <mxGeometry y="216" width="255" height="26" as="geometry" />
        </mxCell>
        <mxCell id="KKpDPRDp1r2dlKf29045-9" value="+ abre_tela() " style="text;align=left;verticalAlign=top;spacingLeft=4;spacingRight=4;overflow=hidden;rotatable=0;points=[[0,0.5],[1,0.5]];portConstraint=eastwest;rounded=0;" parent="34jW8y6ZJVeA6K0mkwZz-33" vertex="1">
          <mxGeometry y="242" width="255" height="26" as="geometry" />
        </mxCell>
        <mxCell id="KKpDPRDp1r2dlKf29045-10" value="+ retornar() " style="text;align=left;verticalAlign=top;spacingLeft=4;spacingRight=4;overflow=hidden;rotatable=0;points=[[0,0.5],[1,0.5]];portConstraint=eastwest;rounded=0;" parent="34jW8y6ZJVeA6K0mkwZz-33" vertex="1">
          <mxGeometry y="268" width="255" height="26" as="geometry" />
        </mxCell>
        <mxCell id="KKpDPRDp1r2dlKf29045-11" value="+ pedido_entregue() " style="text;align=left;verticalAlign=top;spacingLeft=4;spacingRight=4;overflow=hidden;rotatable=0;points=[[0,0.5],[1,0.5]];portConstraint=eastwest;rounded=0;" parent="34jW8y6ZJVeA6K0mkwZz-33" vertex="1">
          <mxGeometry y="294" width="255" height="26" as="geometry" />
        </mxCell>
        <mxCell id="KKpDPRDp1r2dlKf29045-12" value="+ pegar_receitas() " style="text;align=left;verticalAlign=top;spacingLeft=4;spacingRight=4;overflow=hidden;rotatable=0;points=[[0,0.5],[1,0.5]];portConstraint=eastwest;rounded=0;" parent="34jW8y6ZJVeA6K0mkwZz-33" vertex="1">
          <mxGeometry y="320" width="255" height="26" as="geometry" />
        </mxCell>
        <mxCell id="KKpDPRDp1r2dlKf29045-13" value="+ pegar_despesas() " style="text;align=left;verticalAlign=top;spacingLeft=4;spacingRight=4;overflow=hidden;rotatable=0;points=[[0,0.5],[1,0.5]];portConstraint=eastwest;rounded=0;" parent="34jW8y6ZJVeA6K0mkwZz-33" vertex="1">
          <mxGeometry y="346" width="255" height="26" as="geometry" />
        </mxCell>
        <mxCell id="KKpDPRDp1r2dlKf29045-14" value="+ pegar_produto_mais_vendido() " style="text;align=left;verticalAlign=top;spacingLeft=4;spacingRight=4;overflow=hidden;rotatable=0;points=[[0,0.5],[1,0.5]];portConstraint=eastwest;rounded=0;" parent="34jW8y6ZJVeA6K0mkwZz-33" vertex="1">
          <mxGeometry y="372" width="255" height="26" as="geometry" />
        </mxCell>
        <mxCell id="ZCnHrs2GG1sbxFjUJOWf-2" style="edgeStyle=orthogonalEdgeStyle;rounded=0;orthogonalLoop=1;jettySize=auto;html=1;entryX=1;entryY=0.75;entryDx=0;entryDy=0;endArrow=open;endFill=0;" parent="WIyWlLk6GJQsqaUBKTNV-1" source="34jW8y6ZJVeA6K0mkwZz-55" target="QIKu43iznkj8tfLvrIEL-0" edge="1">
          <mxGeometry relative="1" as="geometry" />
        </mxCell>
        <mxCell id="34jW8y6ZJVeA6K0mkwZz-55" value="Controlador_Produto" style="swimlane;fontStyle=0;align=center;verticalAlign=top;childLayout=stackLayout;horizontal=1;startSize=26;horizontalStack=0;resizeParent=1;resizeLast=0;collapsible=1;marginBottom=0;rounded=0;shadow=0;strokeWidth=1;fillColor=#d5e8d4;strokeColor=#82b366;" parent="WIyWlLk6GJQsqaUBKTNV-1" vertex="1">
          <mxGeometry x="-950" y="-134" width="250" height="371" as="geometry">
            <mxRectangle x="550" y="140" width="160" height="26" as="alternateBounds" />
          </mxGeometry>
        </mxCell>
        <mxCell id="34jW8y6ZJVeA6K0mkwZz-56" value="- Pizzas:Pizza[]" style="text;align=left;verticalAlign=top;spacingLeft=4;spacingRight=4;overflow=hidden;rotatable=0;points=[[0,0.5],[1,0.5]];portConstraint=eastwest;rounded=0;" parent="34jW8y6ZJVeA6K0mkwZz-55" vertex="1">
          <mxGeometry y="26" width="250" height="22" as="geometry" />
        </mxCell>
        <mxCell id="34jW8y6ZJVeA6K0mkwZz-58" value="- Bebidas:Bebida[]" style="text;align=left;verticalAlign=top;spacingLeft=4;spacingRight=4;overflow=hidden;rotatable=0;points=[[0,0.5],[1,0.5]];portConstraint=eastwest;rounded=0;" parent="34jW8y6ZJVeA6K0mkwZz-55" vertex="1">
          <mxGeometry y="48" width="250" height="26" as="geometry" />
        </mxCell>
        <mxCell id="b51r0Ibf-gpC-qulpR08-52" value="- controlador_produto: Controlador_Produto" style="text;align=left;verticalAlign=top;spacingLeft=4;spacingRight=4;overflow=hidden;rotatable=0;points=[[0,0.5],[1,0.5]];portConstraint=eastwest;rounded=0;" parent="34jW8y6ZJVeA6K0mkwZz-55" vertex="1">
          <mxGeometry y="74" width="250" height="26" as="geometry" />
        </mxCell>
        <mxCell id="34jW8y6ZJVeA6K0mkwZz-57" value="" style="line;html=1;strokeWidth=1;align=left;verticalAlign=middle;spacingTop=-1;spacingLeft=3;spacingRight=3;rotatable=0;labelPosition=right;points=[];portConstraint=eastwest;rounded=0;" parent="34jW8y6ZJVeA6K0mkwZz-55" vertex="1">
          <mxGeometry y="100" width="250" height="8" as="geometry" />
        </mxCell>
        <mxCell id="hOtxBI7cqi8a_a_TEYvA-24" value="+ &lt;&lt;create&gt;&gt; __init__(controlador_pizzaria)" style="text;align=left;verticalAlign=top;spacingLeft=4;spacingRight=4;overflow=hidden;rotatable=0;points=[[0,0.5],[1,0.5]];portConstraint=eastwest;rounded=0;" parent="34jW8y6ZJVeA6K0mkwZz-55" vertex="1">
          <mxGeometry y="108" width="250" height="26" as="geometry" />
        </mxCell>
        <mxCell id="c0PUC_M8s5G9LCttHtRY-29" value="+ retornar()&#xa;" style="text;align=left;verticalAlign=top;spacingLeft=4;spacingRight=4;overflow=hidden;rotatable=0;points=[[0,0.5],[1,0.5]];portConstraint=eastwest;rounded=0;" parent="34jW8y6ZJVeA6K0mkwZz-55" vertex="1">
          <mxGeometry y="134" width="250" height="26" as="geometry" />
        </mxCell>
        <mxCell id="KKpDPRDp1r2dlKf29045-2" value="+ abre_tela()&#xa;" style="text;align=left;verticalAlign=top;spacingLeft=4;spacingRight=4;overflow=hidden;rotatable=0;points=[[0,0.5],[1,0.5]];portConstraint=eastwest;rounded=0;" parent="34jW8y6ZJVeA6K0mkwZz-55" vertex="1">
          <mxGeometry y="160" width="250" height="26" as="geometry" />
        </mxCell>
        <mxCell id="ZCnHrs2GG1sbxFjUJOWf-73" value="+ cadastrar_produto(produto: Produto)" style="text;align=left;verticalAlign=top;spacingLeft=4;spacingRight=4;overflow=hidden;rotatable=0;points=[[0,0.5],[1,0.5]];portConstraint=eastwest;rounded=0;" parent="34jW8y6ZJVeA6K0mkwZz-55" vertex="1">
          <mxGeometry y="186" width="250" height="26" as="geometry" />
        </mxCell>
        <mxCell id="ZCnHrs2GG1sbxFjUJOWf-75" value="+ modificar_produto(produto: Produto)" style="text;align=left;verticalAlign=top;spacingLeft=4;spacingRight=4;overflow=hidden;rotatable=0;points=[[0,0.5],[1,0.5]];portConstraint=eastwest;rounded=0;" parent="34jW8y6ZJVeA6K0mkwZz-55" vertex="1">
          <mxGeometry y="212" width="250" height="26" as="geometry" />
        </mxCell>
        <mxCell id="ZCnHrs2GG1sbxFjUJOWf-76" value="+ ver_produtos()" style="text;align=left;verticalAlign=top;spacingLeft=4;spacingRight=4;overflow=hidden;rotatable=0;points=[[0,0.5],[1,0.5]];portConstraint=eastwest;rounded=0;" parent="34jW8y6ZJVeA6K0mkwZz-55" vertex="1">
          <mxGeometry y="238" width="250" height="26" as="geometry" />
        </mxCell>
        <mxCell id="KKpDPRDp1r2dlKf29045-3" value="+ pegar_produto(nome)&#xa;" style="text;align=left;verticalAlign=top;spacingLeft=4;spacingRight=4;overflow=hidden;rotatable=0;points=[[0,0.5],[1,0.5]];portConstraint=eastwest;rounded=0;" parent="34jW8y6ZJVeA6K0mkwZz-55" vertex="1">
          <mxGeometry y="264" width="250" height="26" as="geometry" />
        </mxCell>
        <mxCell id="ZCnHrs2GG1sbxFjUJOWf-74" value="+ deletar_produto(produto: Produto)" style="text;align=left;verticalAlign=top;spacingLeft=4;spacingRight=4;overflow=hidden;rotatable=0;points=[[0,0.5],[1,0.5]];portConstraint=eastwest;rounded=0;" parent="34jW8y6ZJVeA6K0mkwZz-55" vertex="1">
          <mxGeometry y="290" width="250" height="26" as="geometry" />
        </mxCell>
        <mxCell id="KKpDPRDp1r2dlKf29045-4" value="+ pegar_pizzas()&#xa;" style="text;align=left;verticalAlign=top;spacingLeft=4;spacingRight=4;overflow=hidden;rotatable=0;points=[[0,0.5],[1,0.5]];portConstraint=eastwest;rounded=0;" parent="34jW8y6ZJVeA6K0mkwZz-55" vertex="1">
          <mxGeometry y="316" width="250" height="26" as="geometry" />
        </mxCell>
        <mxCell id="KKpDPRDp1r2dlKf29045-5" value="+ pegar_bebidas()&#xa;" style="text;align=left;verticalAlign=top;spacingLeft=4;spacingRight=4;overflow=hidden;rotatable=0;points=[[0,0.5],[1,0.5]];portConstraint=eastwest;rounded=0;" parent="34jW8y6ZJVeA6K0mkwZz-55" vertex="1">
          <mxGeometry y="342" width="250" height="26" as="geometry" />
        </mxCell>
        <mxCell id="ZCnHrs2GG1sbxFjUJOWf-3" style="edgeStyle=orthogonalEdgeStyle;rounded=0;orthogonalLoop=1;jettySize=auto;html=1;exitX=1;exitY=0.75;exitDx=0;exitDy=0;endArrow=open;endFill=0;" parent="WIyWlLk6GJQsqaUBKTNV-1" source="b51r0Ibf-gpC-qulpR08-4" target="34jW8y6ZJVeA6K0mkwZz-55" edge="1">
          <mxGeometry relative="1" as="geometry">
            <Array as="points">
              <mxPoint x="-159" y="-532" />
              <mxPoint x="-159" y="-530" />
              <mxPoint x="-825" y="-530" />
            </Array>
          </mxGeometry>
        </mxCell>
        <mxCell id="ZCnHrs2GG1sbxFjUJOWf-4" value="Tela_Pedido" style="swimlane;fontStyle=0;align=center;verticalAlign=top;childLayout=stackLayout;horizontal=1;startSize=26;horizontalStack=0;resizeParent=1;resizeLast=0;collapsible=1;marginBottom=0;rounded=0;shadow=0;strokeWidth=1;fillColor=#f8cecc;strokeColor=#b85450;" parent="WIyWlLk6GJQsqaUBKTNV-1" vertex="1">
          <mxGeometry x="-740" y="258" width="295" height="220" as="geometry">
            <mxRectangle x="550" y="140" width="160" height="26" as="alternateBounds" />
          </mxGeometry>
        </mxCell>
        <mxCell id="ZCnHrs2GG1sbxFjUJOWf-6" value="" style="line;html=1;strokeWidth=1;align=left;verticalAlign=middle;spacingTop=-1;spacingLeft=3;spacingRight=3;rotatable=0;labelPosition=right;points=[];portConstraint=eastwest;rounded=0;" parent="ZCnHrs2GG1sbxFjUJOWf-4" vertex="1">
          <mxGeometry y="26" width="295" height="8" as="geometry" />
        </mxCell>
        <mxCell id="hOtxBI7cqi8a_a_TEYvA-22" value="+ &lt;&lt;create&gt;&gt; __init__()" style="text;align=left;verticalAlign=top;spacingLeft=4;spacingRight=4;overflow=hidden;rotatable=0;points=[[0,0.5],[1,0.5]];portConstraint=eastwest;rounded=0;" parent="ZCnHrs2GG1sbxFjUJOWf-4" vertex="1">
          <mxGeometry y="34" width="295" height="26" as="geometry" />
        </mxCell>
        <mxCell id="ZCnHrs2GG1sbxFjUJOWf-93" value="+ abre_tela()" style="text;align=left;verticalAlign=top;spacingLeft=4;spacingRight=4;overflow=hidden;rotatable=0;points=[[0,0.5],[1,0.5]];portConstraint=eastwest;rounded=0;" parent="ZCnHrs2GG1sbxFjUJOWf-4" vertex="1">
          <mxGeometry y="60" width="295" height="26" as="geometry" />
        </mxCell>
        <mxCell id="ZCnHrs2GG1sbxFjUJOWf-7" value="+ pegar_dados_pedido(atendentes, pizzas, bebidas)" style="text;align=left;verticalAlign=top;spacingLeft=4;spacingRight=4;overflow=hidden;rotatable=0;points=[[0,0.5],[1,0.5]];portConstraint=eastwest;rounded=0;" parent="ZCnHrs2GG1sbxFjUJOWf-4" vertex="1">
          <mxGeometry y="86" width="295" height="26" as="geometry" />
        </mxCell>
        <mxCell id="ZCnHrs2GG1sbxFjUJOWf-10" value="+ ver_pedido(dados_pedido)" style="text;align=left;verticalAlign=top;spacingLeft=4;spacingRight=4;overflow=hidden;rotatable=0;points=[[0,0.5],[1,0.5]];portConstraint=eastwest;rounded=0;" parent="ZCnHrs2GG1sbxFjUJOWf-4" vertex="1">
          <mxGeometry y="112" width="295" height="26" as="geometry" />
        </mxCell>
        <mxCell id="ZCnHrs2GG1sbxFjUJOWf-45" value="+ mostra_mensagem(mensagem:str)&#xa;" style="text;align=left;verticalAlign=top;spacingLeft=4;spacingRight=4;overflow=hidden;rotatable=0;points=[[0,0.5],[1,0.5]];portConstraint=eastwest;rounded=0;" parent="ZCnHrs2GG1sbxFjUJOWf-4" vertex="1">
          <mxGeometry y="138" width="295" height="26" as="geometry" />
        </mxCell>
        <mxCell id="KKpDPRDp1r2dlKf29045-1" value="+ pegar_forma_pagamento()&#xa;" style="text;align=left;verticalAlign=top;spacingLeft=4;spacingRight=4;overflow=hidden;rotatable=0;points=[[0,0.5],[1,0.5]];portConstraint=eastwest;rounded=0;" parent="ZCnHrs2GG1sbxFjUJOWf-4" vertex="1">
          <mxGeometry y="164" width="295" height="26" as="geometry" />
        </mxCell>
        <mxCell id="ZCnHrs2GG1sbxFjUJOWf-101" value="+ escolher_pedido()" style="text;align=left;verticalAlign=top;spacingLeft=4;spacingRight=4;overflow=hidden;rotatable=0;points=[[0,0.5],[1,0.5]];portConstraint=eastwest;rounded=0;" parent="ZCnHrs2GG1sbxFjUJOWf-4" vertex="1">
          <mxGeometry y="190" width="295" height="26" as="geometry" />
        </mxCell>
        <mxCell id="ZCnHrs2GG1sbxFjUJOWf-13" value="Tela_Pizzaria" style="swimlane;fontStyle=0;align=center;verticalAlign=top;childLayout=stackLayout;horizontal=1;startSize=26;horizontalStack=0;resizeParent=1;resizeLast=0;collapsible=1;marginBottom=0;rounded=0;shadow=0;strokeWidth=1;fillColor=#f8cecc;strokeColor=#b85450;" parent="WIyWlLk6GJQsqaUBKTNV-1" vertex="1">
          <mxGeometry x="-610" y="-845" width="330" height="190" as="geometry">
            <mxRectangle x="550" y="140" width="160" height="26" as="alternateBounds" />
          </mxGeometry>
        </mxCell>
        <mxCell id="ZCnHrs2GG1sbxFjUJOWf-15" value="" style="line;html=1;strokeWidth=1;align=left;verticalAlign=middle;spacingTop=-1;spacingLeft=3;spacingRight=3;rotatable=0;labelPosition=right;points=[];portConstraint=eastwest;rounded=0;" parent="ZCnHrs2GG1sbxFjUJOWf-13" vertex="1">
          <mxGeometry y="26" width="330" height="8" as="geometry" />
        </mxCell>
        <mxCell id="hOtxBI7cqi8a_a_TEYvA-39" value="+ &lt;&lt;create&gt;&gt; __init__()" style="text;align=left;verticalAlign=top;spacingLeft=4;spacingRight=4;overflow=hidden;rotatable=0;points=[[0,0.5],[1,0.5]];portConstraint=eastwest;rounded=0;" parent="ZCnHrs2GG1sbxFjUJOWf-13" vertex="1">
          <mxGeometry y="34" width="330" height="26" as="geometry" />
        </mxCell>
        <mxCell id="ZCnHrs2GG1sbxFjUJOWf-22" value="+ abre_tela()&#xa;" style="text;align=left;verticalAlign=top;spacingLeft=4;spacingRight=4;overflow=hidden;rotatable=0;points=[[0,0.5],[1,0.5]];portConstraint=eastwest;rounded=0;" parent="ZCnHrs2GG1sbxFjUJOWf-13" vertex="1">
          <mxGeometry y="60" width="330" height="26" as="geometry" />
        </mxCell>
        <mxCell id="ZCnHrs2GG1sbxFjUJOWf-43" value="+ mostra_mensagem(mensagem:str)&#xa;" style="text;align=left;verticalAlign=top;spacingLeft=4;spacingRight=4;overflow=hidden;rotatable=0;points=[[0,0.5],[1,0.5]];portConstraint=eastwest;rounded=0;" parent="ZCnHrs2GG1sbxFjUJOWf-13" vertex="1">
          <mxGeometry y="86" width="330" height="26" as="geometry" />
        </mxCell>
        <mxCell id="ZCnHrs2GG1sbxFjUJOWf-16" value="+ atendente_do_mes(atendente_do_mes)&#xa;" style="text;align=left;verticalAlign=top;spacingLeft=4;spacingRight=4;overflow=hidden;rotatable=0;points=[[0,0.5],[1,0.5]];portConstraint=eastwest;rounded=0;" parent="ZCnHrs2GG1sbxFjUJOWf-13" vertex="1">
          <mxGeometry y="112" width="330" height="26" as="geometry" />
        </mxCell>
        <mxCell id="c0PUC_M8s5G9LCttHtRY-32" value="+ produto_mais_vendido(produto_mais_vendido)&#xa;" style="text;align=left;verticalAlign=top;spacingLeft=4;spacingRight=4;overflow=hidden;rotatable=0;points=[[0,0.5],[1,0.5]];portConstraint=eastwest;rounded=0;" parent="ZCnHrs2GG1sbxFjUJOWf-13" vertex="1">
          <mxGeometry y="138" width="330" height="26" as="geometry" />
        </mxCell>
        <mxCell id="c0PUC_M8s5G9LCttHtRY-36" value="+ mostrar_financeiro(salarios, despesas, receitas)&#xa;" style="text;align=left;verticalAlign=top;spacingLeft=4;spacingRight=4;overflow=hidden;rotatable=0;points=[[0,0.5],[1,0.5]];portConstraint=eastwest;rounded=0;" parent="ZCnHrs2GG1sbxFjUJOWf-13" vertex="1">
          <mxGeometry y="164" width="330" height="26" as="geometry" />
        </mxCell>
        <mxCell id="ZCnHrs2GG1sbxFjUJOWf-21" style="edgeStyle=orthogonalEdgeStyle;rounded=0;orthogonalLoop=1;jettySize=auto;html=1;startArrow=open;startFill=0;endArrow=open;endFill=0;" parent="WIyWlLk6GJQsqaUBKTNV-1" source="34jW8y6ZJVeA6K0mkwZz-0" edge="1">
          <mxGeometry relative="1" as="geometry">
            <mxPoint x="-280" y="-670" as="targetPoint" />
            <Array as="points">
              <mxPoint x="-50" y="-820" />
              <mxPoint x="-250" y="-820" />
              <mxPoint x="-250" y="-662" />
              <mxPoint x="-280" y="-662" />
              <mxPoint x="-280" y="-670" />
            </Array>
          </mxGeometry>
        </mxCell>
        <mxCell id="ZCnHrs2GG1sbxFjUJOWf-34" style="edgeStyle=orthogonalEdgeStyle;rounded=0;orthogonalLoop=1;jettySize=auto;html=1;entryX=0.476;entryY=0;entryDx=0;entryDy=0;entryPerimeter=0;startArrow=open;startFill=0;endArrow=open;endFill=0;" parent="WIyWlLk6GJQsqaUBKTNV-1" source="ZCnHrs2GG1sbxFjUJOWf-30" target="34jW8y6ZJVeA6K0mkwZz-9" edge="1">
          <mxGeometry relative="1" as="geometry">
            <Array as="points">
              <mxPoint x="1138" y="-20" />
              <mxPoint x="1231" y="-20" />
            </Array>
          </mxGeometry>
        </mxCell>
        <mxCell id="ZCnHrs2GG1sbxFjUJOWf-30" value="Tela_Funcionario" style="swimlane;fontStyle=0;align=center;verticalAlign=top;childLayout=stackLayout;horizontal=1;startSize=26;horizontalStack=0;resizeParent=1;resizeLast=0;collapsible=1;marginBottom=0;rounded=0;shadow=0;strokeWidth=1;fillColor=#f8cecc;strokeColor=#b85450;" parent="WIyWlLk6GJQsqaUBKTNV-1" vertex="1">
          <mxGeometry x="1018" y="-280" width="244" height="222" as="geometry">
            <mxRectangle x="550" y="140" width="160" height="26" as="alternateBounds" />
          </mxGeometry>
        </mxCell>
        <mxCell id="ZCnHrs2GG1sbxFjUJOWf-33" value="" style="line;html=1;strokeWidth=1;align=left;verticalAlign=middle;spacingTop=-1;spacingLeft=3;spacingRight=3;rotatable=0;labelPosition=right;points=[];portConstraint=eastwest;rounded=0;" parent="ZCnHrs2GG1sbxFjUJOWf-30" vertex="1">
          <mxGeometry y="26" width="244" height="8" as="geometry" />
        </mxCell>
        <mxCell id="hOtxBI7cqi8a_a_TEYvA-9" value="+ &lt;&lt;create&gt;&gt; __init__()" style="text;align=left;verticalAlign=top;spacingLeft=4;spacingRight=4;overflow=hidden;rotatable=0;points=[[0,0.5],[1,0.5]];portConstraint=eastwest;rounded=0;" parent="ZCnHrs2GG1sbxFjUJOWf-30" vertex="1">
          <mxGeometry y="34" width="244" height="26" as="geometry" />
        </mxCell>
        <mxCell id="ZCnHrs2GG1sbxFjUJOWf-36" value="+ pega_dados_funcionario()&#xa;" style="text;align=left;verticalAlign=top;spacingLeft=4;spacingRight=4;overflow=hidden;rotatable=0;points=[[0,0.5],[1,0.5]];portConstraint=eastwest;rounded=0;" parent="ZCnHrs2GG1sbxFjUJOWf-30" vertex="1">
          <mxGeometry y="60" width="244" height="26" as="geometry" />
        </mxCell>
        <mxCell id="ZCnHrs2GG1sbxFjUJOWf-42" value="+ mostra_funcionarios(dados_funcionario)&#xa;" style="text;align=left;verticalAlign=top;spacingLeft=4;spacingRight=4;overflow=hidden;rotatable=0;points=[[0,0.5],[1,0.5]];portConstraint=eastwest;rounded=0;" parent="ZCnHrs2GG1sbxFjUJOWf-30" vertex="1">
          <mxGeometry y="86" width="244" height="26" as="geometry" />
        </mxCell>
        <mxCell id="ZCnHrs2GG1sbxFjUJOWf-44" value="+ mostra_mensagem(mensagem:str)&#xa;" style="text;align=left;verticalAlign=top;spacingLeft=4;spacingRight=4;overflow=hidden;rotatable=0;points=[[0,0.5],[1,0.5]];portConstraint=eastwest;rounded=0;" parent="ZCnHrs2GG1sbxFjUJOWf-30" vertex="1">
          <mxGeometry y="112" width="244" height="26" as="geometry" />
        </mxCell>
        <mxCell id="ZCnHrs2GG1sbxFjUJOWf-100" value="+ seleciona_funcionario()&#xa;" style="text;align=left;verticalAlign=top;spacingLeft=4;spacingRight=4;overflow=hidden;rotatable=0;points=[[0,0.5],[1,0.5]];portConstraint=eastwest;rounded=0;" parent="ZCnHrs2GG1sbxFjUJOWf-30" vertex="1">
          <mxGeometry y="138" width="244" height="26" as="geometry" />
        </mxCell>
        <mxCell id="c0PUC_M8s5G9LCttHtRY-17" value="+ escolhe_funcao()&#xa;" style="text;align=left;verticalAlign=top;spacingLeft=4;spacingRight=4;overflow=hidden;rotatable=0;points=[[0,0.5],[1,0.5]];portConstraint=eastwest;rounded=0;" parent="ZCnHrs2GG1sbxFjUJOWf-30" vertex="1">
          <mxGeometry y="164" width="244" height="26" as="geometry" />
        </mxCell>
        <mxCell id="ZCnHrs2GG1sbxFjUJOWf-95" value="+ abre_tela()" style="text;align=left;verticalAlign=top;spacingLeft=4;spacingRight=4;overflow=hidden;rotatable=0;points=[[0,0.5],[1,0.5]];portConstraint=eastwest;rounded=0;" parent="ZCnHrs2GG1sbxFjUJOWf-30" vertex="1">
          <mxGeometry y="190" width="244" height="26" as="geometry" />
        </mxCell>
        <mxCell id="ZCnHrs2GG1sbxFjUJOWf-46" value="Tela_Produto" style="swimlane;fontStyle=0;align=center;verticalAlign=top;childLayout=stackLayout;horizontal=1;startSize=26;horizontalStack=0;resizeParent=1;resizeLast=0;collapsible=1;marginBottom=0;rounded=0;shadow=0;strokeWidth=1;fillColor=#f8cecc;strokeColor=#b85450;" parent="WIyWlLk6GJQsqaUBKTNV-1" vertex="1">
          <mxGeometry x="-1470" y="-160" width="220" height="190" as="geometry">
            <mxRectangle x="550" y="140" width="160" height="26" as="alternateBounds" />
          </mxGeometry>
        </mxCell>
        <mxCell id="ZCnHrs2GG1sbxFjUJOWf-49" value="" style="line;html=1;strokeWidth=1;align=left;verticalAlign=middle;spacingTop=-1;spacingLeft=3;spacingRight=3;rotatable=0;labelPosition=right;points=[];portConstraint=eastwest;rounded=0;" parent="ZCnHrs2GG1sbxFjUJOWf-46" vertex="1">
          <mxGeometry y="26" width="220" height="8" as="geometry" />
        </mxCell>
        <mxCell id="hOtxBI7cqi8a_a_TEYvA-23" value="+ &lt;&lt;create&gt;&gt; __init__()" style="text;align=left;verticalAlign=top;spacingLeft=4;spacingRight=4;overflow=hidden;rotatable=0;points=[[0,0.5],[1,0.5]];portConstraint=eastwest;rounded=0;" parent="ZCnHrs2GG1sbxFjUJOWf-46" vertex="1">
          <mxGeometry y="34" width="220" height="26" as="geometry" />
        </mxCell>
        <mxCell id="ZCnHrs2GG1sbxFjUJOWf-88" value="+ abre_tela()" style="text;align=left;verticalAlign=top;spacingLeft=4;spacingRight=4;overflow=hidden;rotatable=0;points=[[0,0.5],[1,0.5]];portConstraint=eastwest;rounded=0;" parent="ZCnHrs2GG1sbxFjUJOWf-46" vertex="1">
          <mxGeometry y="60" width="220" height="26" as="geometry" />
        </mxCell>
        <mxCell id="ZCnHrs2GG1sbxFjUJOWf-55" value="+ mostra_mensagem(mensagem:str)&#xa;" style="text;align=left;verticalAlign=top;spacingLeft=4;spacingRight=4;overflow=hidden;rotatable=0;points=[[0,0.5],[1,0.5]];portConstraint=eastwest;rounded=0;" parent="ZCnHrs2GG1sbxFjUJOWf-46" vertex="1">
          <mxGeometry y="86" width="220" height="26" as="geometry" />
        </mxCell>
        <mxCell id="c0PUC_M8s5G9LCttHtRY-12" value="+ pegar_dados_produto()" style="text;align=left;verticalAlign=top;spacingLeft=4;spacingRight=4;overflow=hidden;rotatable=0;points=[[0,0.5],[1,0.5]];portConstraint=eastwest;rounded=0;" parent="ZCnHrs2GG1sbxFjUJOWf-46" vertex="1">
          <mxGeometry y="112" width="220" height="26" as="geometry" />
        </mxCell>
        <mxCell id="ZCnHrs2GG1sbxFjUJOWf-54" value="+ ver_produto()" style="text;align=left;verticalAlign=top;spacingLeft=4;spacingRight=4;overflow=hidden;rotatable=0;points=[[0,0.5],[1,0.5]];portConstraint=eastwest;rounded=0;" parent="ZCnHrs2GG1sbxFjUJOWf-46" vertex="1">
          <mxGeometry y="138" width="220" height="26" as="geometry" />
        </mxCell>
        <mxCell id="c0PUC_M8s5G9LCttHtRY-13" value="+ escolher_produto()" style="text;align=left;verticalAlign=top;spacingLeft=4;spacingRight=4;overflow=hidden;rotatable=0;points=[[0,0.5],[1,0.5]];portConstraint=eastwest;rounded=0;" parent="ZCnHrs2GG1sbxFjUJOWf-46" vertex="1">
          <mxGeometry y="164" width="220" height="26" as="geometry" />
        </mxCell>
        <mxCell id="ZCnHrs2GG1sbxFjUJOWf-50" style="edgeStyle=orthogonalEdgeStyle;rounded=0;orthogonalLoop=1;jettySize=auto;html=1;entryX=0.015;entryY=0.731;entryDx=0;entryDy=0;entryPerimeter=0;startArrow=open;startFill=0;endArrow=open;endFill=0;" parent="WIyWlLk6GJQsqaUBKTNV-1" source="ZCnHrs2GG1sbxFjUJOWf-46" target="34jW8y6ZJVeA6K0mkwZz-58" edge="1">
          <mxGeometry relative="1" as="geometry" />
        </mxCell>
        <mxCell id="ZCnHrs2GG1sbxFjUJOWf-56" value="Tela_Cliente" style="swimlane;fontStyle=0;align=center;verticalAlign=top;childLayout=stackLayout;horizontal=1;startSize=26;horizontalStack=0;resizeParent=1;resizeLast=0;collapsible=1;marginBottom=0;rounded=0;shadow=0;strokeWidth=1;fillColor=#f8cecc;strokeColor=#b85450;" parent="WIyWlLk6GJQsqaUBKTNV-1" vertex="1">
          <mxGeometry x="480" y="-480" width="225" height="220" as="geometry">
            <mxRectangle x="550" y="140" width="160" height="26" as="alternateBounds" />
          </mxGeometry>
        </mxCell>
        <mxCell id="ZCnHrs2GG1sbxFjUJOWf-57" value="" style="line;html=1;strokeWidth=1;align=left;verticalAlign=middle;spacingTop=-1;spacingLeft=3;spacingRight=3;rotatable=0;labelPosition=right;points=[];portConstraint=eastwest;rounded=0;" parent="ZCnHrs2GG1sbxFjUJOWf-56" vertex="1">
          <mxGeometry y="26" width="225" height="8" as="geometry" />
        </mxCell>
        <mxCell id="hOtxBI7cqi8a_a_TEYvA-20" value="+ &lt;&lt;create&gt;&gt; __init__()" style="text;align=left;verticalAlign=top;spacingLeft=4;spacingRight=4;overflow=hidden;rotatable=0;points=[[0,0.5],[1,0.5]];portConstraint=eastwest;rounded=0;" parent="ZCnHrs2GG1sbxFjUJOWf-56" vertex="1">
          <mxGeometry y="34" width="225" height="26" as="geometry" />
        </mxCell>
        <mxCell id="ZCnHrs2GG1sbxFjUJOWf-59" value="+ pega_dados_cliente()&#xa;" style="text;align=left;verticalAlign=top;spacingLeft=4;spacingRight=4;overflow=hidden;rotatable=0;points=[[0,0.5],[1,0.5]];portConstraint=eastwest;rounded=0;" parent="ZCnHrs2GG1sbxFjUJOWf-56" vertex="1">
          <mxGeometry y="60" width="225" height="26" as="geometry" />
        </mxCell>
        <mxCell id="c0PUC_M8s5G9LCttHtRY-11" value="+ pega_endereco()&#xa;" style="text;align=left;verticalAlign=top;spacingLeft=4;spacingRight=4;overflow=hidden;rotatable=0;points=[[0,0.5],[1,0.5]];portConstraint=eastwest;rounded=0;" parent="ZCnHrs2GG1sbxFjUJOWf-56" vertex="1">
          <mxGeometry y="86" width="225" height="26" as="geometry" />
        </mxCell>
        <mxCell id="ZCnHrs2GG1sbxFjUJOWf-60" value="+ mostra_clientes(dados_cliente)&#xa;" style="text;align=left;verticalAlign=top;spacingLeft=4;spacingRight=4;overflow=hidden;rotatable=0;points=[[0,0.5],[1,0.5]];portConstraint=eastwest;rounded=0;" parent="ZCnHrs2GG1sbxFjUJOWf-56" vertex="1">
          <mxGeometry y="112" width="225" height="26" as="geometry" />
        </mxCell>
        <mxCell id="ZCnHrs2GG1sbxFjUJOWf-61" value="+ mostra_mensagem(mensagem:str)&#xa;" style="text;align=left;verticalAlign=top;spacingLeft=4;spacingRight=4;overflow=hidden;rotatable=0;points=[[0,0.5],[1,0.5]];portConstraint=eastwest;rounded=0;" parent="ZCnHrs2GG1sbxFjUJOWf-56" vertex="1">
          <mxGeometry y="138" width="225" height="26" as="geometry" />
        </mxCell>
        <mxCell id="ZCnHrs2GG1sbxFjUJOWf-99" value="+ seleciona_cliente()&#xa;" style="text;align=left;verticalAlign=top;spacingLeft=4;spacingRight=4;overflow=hidden;rotatable=0;points=[[0,0.5],[1,0.5]];portConstraint=eastwest;rounded=0;" parent="ZCnHrs2GG1sbxFjUJOWf-56" vertex="1">
          <mxGeometry y="164" width="225" height="26" as="geometry" />
        </mxCell>
        <mxCell id="ZCnHrs2GG1sbxFjUJOWf-91" value="+ abre_tela()" style="text;align=left;verticalAlign=top;spacingLeft=4;spacingRight=4;overflow=hidden;rotatable=0;points=[[0,0.5],[1,0.5]];portConstraint=eastwest;rounded=0;" parent="ZCnHrs2GG1sbxFjUJOWf-56" vertex="1">
          <mxGeometry y="190" width="225" height="26" as="geometry" />
        </mxCell>
        <mxCell id="ZCnHrs2GG1sbxFjUJOWf-62" style="edgeStyle=orthogonalEdgeStyle;rounded=0;orthogonalLoop=1;jettySize=auto;html=1;startArrow=open;startFill=0;endArrow=open;endFill=0;entryX=0.5;entryY=1;entryDx=0;entryDy=0;" parent="WIyWlLk6GJQsqaUBKTNV-1" source="34jW8y6ZJVeA6K0mkwZz-15" target="ZCnHrs2GG1sbxFjUJOWf-56" edge="1">
          <mxGeometry relative="1" as="geometry">
            <mxPoint x="590" y="-140" as="targetPoint" />
            <Array as="points">
              <mxPoint x="593" y="-70" />
            </Array>
          </mxGeometry>
        </mxCell>
        <mxCell id="ZCnHrs2GG1sbxFjUJOWf-104" value="Tela" style="rounded=0;whiteSpace=wrap;html=1;fillColor=#f8cecc;strokeColor=#b85450;fontSize=17;" parent="WIyWlLk6GJQsqaUBKTNV-1" vertex="1">
          <mxGeometry x="-1200" y="-680" width="120" height="60" as="geometry" />
        </mxCell>
        <mxCell id="ZCnHrs2GG1sbxFjUJOWf-105" value="Controlador" style="rounded=0;whiteSpace=wrap;html=1;fillColor=#d5e8d4;strokeColor=#82b366;fontSize=17;" parent="WIyWlLk6GJQsqaUBKTNV-1" vertex="1">
          <mxGeometry x="-1050" y="-680" width="120" height="60" as="geometry" />
        </mxCell>
        <mxCell id="hOtxBI7cqi8a_a_TEYvA-1" style="edgeStyle=orthogonalEdgeStyle;rounded=0;orthogonalLoop=1;jettySize=auto;html=1;entryX=0.5;entryY=1;entryDx=0;entryDy=0;" parent="WIyWlLk6GJQsqaUBKTNV-1" source="ZCnHrs2GG1sbxFjUJOWf-106" target="hOtxBI7cqi8a_a_TEYvA-0" edge="1">
          <mxGeometry relative="1" as="geometry" />
        </mxCell>
        <mxCell id="ZCnHrs2GG1sbxFjUJOWf-106" value="Entidade" style="rounded=0;whiteSpace=wrap;html=1;fillColor=#fff2cc;strokeColor=#d6b656;fontSize=17;" parent="WIyWlLk6GJQsqaUBKTNV-1" vertex="1">
          <mxGeometry x="-900" y="-680" width="120" height="60" as="geometry" />
        </mxCell>
        <mxCell id="ZCnHrs2GG1sbxFjUJOWf-109" style="edgeStyle=orthogonalEdgeStyle;rounded=0;orthogonalLoop=1;jettySize=auto;html=1;entryX=0.75;entryY=0;entryDx=0;entryDy=0;endArrow=open;endFill=0;" parent="WIyWlLk6GJQsqaUBKTNV-1" target="QIKu43iznkj8tfLvrIEL-0" edge="1">
          <mxGeometry relative="1" as="geometry">
            <mxPoint x="-160" y="-250" as="sourcePoint" />
            <Array as="points">
              <mxPoint x="-160" y="-260" />
              <mxPoint x="-1070" y="-260" />
              <mxPoint x="-1070" y="70" />
              <mxPoint x="-1122" y="70" />
            </Array>
          </mxGeometry>
        </mxCell>
        <mxCell id="ZCnHrs2GG1sbxFjUJOWf-110" style="edgeStyle=orthogonalEdgeStyle;rounded=0;orthogonalLoop=1;jettySize=auto;html=1;entryX=0.75;entryY=1;entryDx=0;entryDy=0;endArrow=open;endFill=0;" parent="WIyWlLk6GJQsqaUBKTNV-1" edge="1">
          <mxGeometry relative="1" as="geometry">
            <mxPoint x="60" y="-260" as="sourcePoint" />
            <Array as="points">
              <mxPoint x="80" y="-259" />
              <mxPoint x="80" y="650" />
              <mxPoint x="1254" y="650" />
            </Array>
            <mxPoint x="1253.75" y="610" as="targetPoint" />
          </mxGeometry>
        </mxCell>
        <mxCell id="hOtxBI7cqi8a_a_TEYvA-0" value="Todos os seus atributos possuem getters e setters" style="rounded=0;whiteSpace=wrap;html=1;" parent="WIyWlLk6GJQsqaUBKTNV-1" vertex="1">
          <mxGeometry x="-900" y="-780" width="120" height="60" as="geometry" />
        </mxCell>
        <mxCell id="hOtxBI7cqi8a_a_TEYvA-2" value="- tela_cliente" style="edgeLabel;resizable=0;html=1;align=left;verticalAlign=bottom;rounded=0;" parent="WIyWlLk6GJQsqaUBKTNV-1" connectable="0" vertex="1">
          <mxGeometry x="605" y="-190" as="geometry" />
        </mxCell>
        <mxCell id="hOtxBI7cqi8a_a_TEYvA-5" value="1" style="edgeLabel;resizable=0;html=1;align=left;verticalAlign=bottom;rounded=0;" parent="WIyWlLk6GJQsqaUBKTNV-1" connectable="0" vertex="1">
          <mxGeometry x="1110" y="-40" as="geometry" />
        </mxCell>
        <mxCell id="hOtxBI7cqi8a_a_TEYvA-8" value="- tela_funcionario" style="edgeLabel;resizable=0;html=1;align=left;verticalAlign=bottom;rounded=0;" parent="WIyWlLk6GJQsqaUBKTNV-1" connectable="0" vertex="1">
          <mxGeometry x="1140" y="-30" as="geometry" />
        </mxCell>
        <mxCell id="hOtxBI7cqi8a_a_TEYvA-19" style="edgeStyle=orthogonalEdgeStyle;rounded=0;orthogonalLoop=1;jettySize=auto;html=1;entryX=0.119;entryY=0.016;entryDx=0;entryDy=0;entryPerimeter=0;endArrow=open;endFill=0;" parent="WIyWlLk6GJQsqaUBKTNV-1" source="34jW8y6ZJVeA6K0mkwZz-24" target="34jW8y6ZJVeA6K0mkwZz-15" edge="1">
          <mxGeometry relative="1" as="geometry" />
        </mxCell>
        <mxCell id="hOtxBI7cqi8a_a_TEYvA-47" value="1" style="edgeLabel;resizable=0;html=1;align=left;verticalAlign=bottom;rounded=0;" parent="WIyWlLk6GJQsqaUBKTNV-1" connectable="0" vertex="1">
          <mxGeometry x="580" y="-190" as="geometry" />
        </mxCell>
        <mxCell id="hOtxBI7cqi8a_a_TEYvA-48" value="- tela_pizzaria" style="edgeLabel;resizable=0;html=1;align=left;verticalAlign=bottom;rounded=0;" parent="WIyWlLk6GJQsqaUBKTNV-1" connectable="0" vertex="1">
          <mxGeometry x="-40" y="-800" as="geometry" />
        </mxCell>
        <mxCell id="hOtxBI7cqi8a_a_TEYvA-49" value="1" style="edgeLabel;resizable=0;html=1;align=left;verticalAlign=bottom;rounded=0;" parent="WIyWlLk6GJQsqaUBKTNV-1" connectable="0" vertex="1">
          <mxGeometry x="-240" y="-650" as="geometry" />
        </mxCell>
        <mxCell id="hOtxBI7cqi8a_a_TEYvA-50" value="1" style="edgeLabel;resizable=0;html=1;align=left;verticalAlign=bottom;rounded=0;" parent="WIyWlLk6GJQsqaUBKTNV-1" connectable="0" vertex="1">
          <mxGeometry x="-150" y="-600" as="geometry">
            <mxPoint x="-26" y="335" as="offset" />
          </mxGeometry>
        </mxCell>
        <mxCell id="hOtxBI7cqi8a_a_TEYvA-51" value="- tela_pedido" style="edgeLabel;resizable=0;html=1;align=left;verticalAlign=bottom;rounded=0;" parent="WIyWlLk6GJQsqaUBKTNV-1" connectable="0" vertex="1">
          <mxGeometry x="-410" y="430" as="geometry" />
        </mxCell>
        <mxCell id="hOtxBI7cqi8a_a_TEYvA-52" value="1" style="edgeLabel;resizable=0;html=1;align=left;verticalAlign=bottom;rounded=0;" parent="WIyWlLk6GJQsqaUBKTNV-1" connectable="0" vertex="1">
          <mxGeometry x="-400" y="400" as="geometry" />
        </mxCell>
        <mxCell id="hOtxBI7cqi8a_a_TEYvA-53" value="0...*" style="edgeLabel;resizable=0;html=1;align=left;verticalAlign=bottom;rounded=0;" parent="WIyWlLk6GJQsqaUBKTNV-1" connectable="0" vertex="1">
          <mxGeometry x="-170" y="155" as="geometry" />
        </mxCell>
        <mxCell id="hOtxBI7cqi8a_a_TEYvA-54" value="- lista_pedidos" style="edgeLabel;resizable=0;html=1;align=left;verticalAlign=bottom;rounded=0;" parent="WIyWlLk6GJQsqaUBKTNV-1" connectable="0" vertex="1">
          <mxGeometry x="-130" y="155" as="geometry" />
        </mxCell>
        <mxCell id="hOtxBI7cqi8a_a_TEYvA-56" value="- tela_produto" style="edgeLabel;resizable=0;html=1;align=left;verticalAlign=bottom;rounded=0;" parent="WIyWlLk6GJQsqaUBKTNV-1" connectable="0" vertex="1">
          <mxGeometry x="-1240" y="-47" as="geometry" />
        </mxCell>
        <mxCell id="hOtxBI7cqi8a_a_TEYvA-57" value="1" style="edgeLabel;resizable=0;html=1;align=left;verticalAlign=bottom;rounded=0;" parent="WIyWlLk6GJQsqaUBKTNV-1" connectable="0" vertex="1">
          <mxGeometry x="-1230" y="-76" as="geometry" />
        </mxCell>
        <mxCell id="hOtxBI7cqi8a_a_TEYvA-62" value="1" style="edgeLabel;resizable=0;html=1;align=left;verticalAlign=bottom;rounded=0;" parent="WIyWlLk6GJQsqaUBKTNV-1" connectable="0" vertex="1">
          <mxGeometry x="-380" as="geometry">
            <mxPoint x="-463" y="-134" as="offset" />
          </mxGeometry>
        </mxCell>
        <mxCell id="hOtxBI7cqi8a_a_TEYvA-63" value="1" style="edgeLabel;resizable=0;html=1;align=left;verticalAlign=bottom;rounded=0;" parent="WIyWlLk6GJQsqaUBKTNV-1" connectable="0" vertex="1">
          <mxGeometry x="-30" y="-47" as="geometry">
            <mxPoint x="-463" y="-134" as="offset" />
          </mxGeometry>
        </mxCell>
        <mxCell id="hOtxBI7cqi8a_a_TEYvA-64" value="1" style="edgeLabel;resizable=0;html=1;align=left;verticalAlign=bottom;rounded=0;" parent="WIyWlLk6GJQsqaUBKTNV-1" connectable="0" vertex="1">
          <mxGeometry x="346" y="-555" as="geometry">
            <mxPoint x="-26" y="335" as="offset" />
          </mxGeometry>
        </mxCell>
        <mxCell id="hOtxBI7cqi8a_a_TEYvA-65" value="1" style="edgeLabel;resizable=0;html=1;align=left;verticalAlign=bottom;rounded=0;" parent="WIyWlLk6GJQsqaUBKTNV-1" connectable="0" vertex="1">
          <mxGeometry x="1360" y="-128" as="geometry">
            <mxPoint x="29" y="332" as="offset" />
          </mxGeometry>
        </mxCell>
        <mxCell id="KrR3Ijgz4C3MExihU3qD-1" value="Endereco" style="swimlane;fontStyle=0;align=center;verticalAlign=top;childLayout=stackLayout;horizontal=1;startSize=26;horizontalStack=0;resizeParent=1;resizeLast=0;collapsible=1;marginBottom=0;rounded=0;shadow=0;strokeWidth=1;fillColor=#fff2cc;strokeColor=#d6b656;" parent="WIyWlLk6GJQsqaUBKTNV-1" vertex="1">
          <mxGeometry x="100" y="266" width="280" height="190" as="geometry">
            <mxRectangle x="130" y="380" width="160" height="26" as="alternateBounds" />
          </mxGeometry>
        </mxCell>
        <mxCell id="KrR3Ijgz4C3MExihU3qD-7" value="- numero:int" style="text;align=left;verticalAlign=top;spacingLeft=4;spacingRight=4;overflow=hidden;rotatable=0;points=[[0,0.5],[1,0.5]];portConstraint=eastwest;rounded=0;" parent="KrR3Ijgz4C3MExihU3qD-1" vertex="1">
          <mxGeometry y="26" width="280" height="26" as="geometry" />
        </mxCell>
        <mxCell id="KrR3Ijgz4C3MExihU3qD-2" value="- rua:str" style="text;align=left;verticalAlign=top;spacingLeft=4;spacingRight=4;overflow=hidden;rotatable=0;points=[[0,0.5],[1,0.5]];portConstraint=eastwest;rounded=0;" parent="KrR3Ijgz4C3MExihU3qD-1" vertex="1">
          <mxGeometry y="52" width="280" height="26" as="geometry" />
        </mxCell>
        <mxCell id="KrR3Ijgz4C3MExihU3qD-3" value="- bairro:str" style="text;align=left;verticalAlign=top;spacingLeft=4;spacingRight=4;overflow=hidden;rotatable=0;points=[[0,0.5],[1,0.5]];portConstraint=eastwest;rounded=0;" parent="KrR3Ijgz4C3MExihU3qD-1" vertex="1">
          <mxGeometry y="78" width="280" height="26" as="geometry" />
        </mxCell>
        <mxCell id="KrR3Ijgz4C3MExihU3qD-6" value="- cidade:str" style="text;align=left;verticalAlign=top;spacingLeft=4;spacingRight=4;overflow=hidden;rotatable=0;points=[[0,0.5],[1,0.5]];portConstraint=eastwest;rounded=0;" parent="KrR3Ijgz4C3MExihU3qD-1" vertex="1">
          <mxGeometry y="104" width="280" height="26" as="geometry" />
        </mxCell>
        <mxCell id="KrR3Ijgz4C3MExihU3qD-8" value="- cep:str" style="text;align=left;verticalAlign=top;spacingLeft=4;spacingRight=4;overflow=hidden;rotatable=0;points=[[0,0.5],[1,0.5]];portConstraint=eastwest;rounded=0;" parent="KrR3Ijgz4C3MExihU3qD-1" vertex="1">
          <mxGeometry y="130" width="280" height="26" as="geometry" />
        </mxCell>
        <mxCell id="KrR3Ijgz4C3MExihU3qD-4" value="" style="line;html=1;strokeWidth=1;align=left;verticalAlign=middle;spacingTop=-1;spacingLeft=3;spacingRight=3;rotatable=0;labelPosition=right;points=[];portConstraint=eastwest;rounded=0;" parent="KrR3Ijgz4C3MExihU3qD-1" vertex="1">
          <mxGeometry y="156" width="280" height="8" as="geometry" />
        </mxCell>
        <mxCell id="KrR3Ijgz4C3MExihU3qD-5" value="+ &lt;&lt;create&gt;&gt; __init__(numero, rua, bairro, cidade)" style="text;align=left;verticalAlign=top;spacingLeft=4;spacingRight=4;overflow=hidden;rotatable=0;points=[[0,0.5],[1,0.5]];portConstraint=eastwest;rounded=0;" parent="KrR3Ijgz4C3MExihU3qD-1" vertex="1">
          <mxGeometry y="164" width="280" height="26" as="geometry" />
        </mxCell>
        <mxCell id="KrR3Ijgz4C3MExihU3qD-9" style="edgeStyle=orthogonalEdgeStyle;rounded=0;orthogonalLoop=1;jettySize=auto;html=1;entryX=0.75;entryY=0;entryDx=0;entryDy=0;startArrow=diamondThin;startFill=1;" parent="WIyWlLk6GJQsqaUBKTNV-1" source="kdAsW70PlrFogEJaz6tP-25" target="KrR3Ijgz4C3MExihU3qD-1" edge="1">
          <mxGeometry relative="1" as="geometry" />
        </mxCell>
        <mxCell id="KrR3Ijgz4C3MExihU3qD-16" value="1" style="edgeLabel;resizable=0;html=1;align=left;verticalAlign=bottom;rounded=0;" parent="WIyWlLk6GJQsqaUBKTNV-1" connectable="0" vertex="1">
          <mxGeometry x="480" y="-190" as="geometry">
            <mxPoint x="-160" y="458" as="offset" />
          </mxGeometry>
        </mxCell>
        <mxCell id="zkfFHV4jXpPFQw0GAbJ--7" value="- endereco:Endereco" style="text;align=left;verticalAlign=top;spacingLeft=4;spacingRight=4;overflow=hidden;rotatable=0;points=[[0,0.5],[1,0.5]];portConstraint=eastwest;rounded=0;" parent="WIyWlLk6GJQsqaUBKTNV-1" vertex="1">
          <mxGeometry x="250" y="218" width="130" height="26" as="geometry" />
        </mxCell>
        <mxCell id="b51r0Ibf-gpC-qulpR08-0" value="1" style="text;html=1;strokeColor=none;fillColor=none;align=center;verticalAlign=middle;whiteSpace=wrap;rounded=0;" parent="WIyWlLk6GJQsqaUBKTNV-1" vertex="1">
          <mxGeometry x="-80" y="-845" width="20" height="30" as="geometry" />
        </mxCell>
        <mxCell id="b51r0Ibf-gpC-qulpR08-1" value="1" style="text;html=1;strokeColor=none;fillColor=none;align=center;verticalAlign=middle;whiteSpace=wrap;rounded=0;" parent="WIyWlLk6GJQsqaUBKTNV-1" vertex="1">
          <mxGeometry x="-180" y="-480" width="20" height="30" as="geometry" />
        </mxCell>
        <mxCell id="b51r0Ibf-gpC-qulpR08-3" value="1" style="text;html=1;strokeColor=none;fillColor=none;align=center;verticalAlign=middle;whiteSpace=wrap;rounded=0;" parent="WIyWlLk6GJQsqaUBKTNV-1" vertex="1">
          <mxGeometry x="-180" y="-525" width="20" height="30" as="geometry" />
        </mxCell>
        <mxCell id="b51r0Ibf-gpC-qulpR08-4" value="1" style="text;html=1;strokeColor=none;fillColor=none;align=center;verticalAlign=middle;whiteSpace=wrap;rounded=0;" parent="WIyWlLk6GJQsqaUBKTNV-1" vertex="1">
          <mxGeometry x="-180" y="-630" width="20" height="30" as="geometry" />
        </mxCell>
        <mxCell id="b51r0Ibf-gpC-qulpR08-5" value="1" style="text;html=1;strokeColor=none;fillColor=none;align=center;verticalAlign=middle;whiteSpace=wrap;rounded=0;" parent="WIyWlLk6GJQsqaUBKTNV-1" vertex="1">
          <mxGeometry x="-180" y="-214" width="20" height="30" as="geometry" />
        </mxCell>
        <mxCell id="b51r0Ibf-gpC-qulpR08-6" value="1" style="text;html=1;strokeColor=none;fillColor=none;align=center;verticalAlign=middle;whiteSpace=wrap;rounded=0;" parent="WIyWlLk6GJQsqaUBKTNV-1" vertex="1">
          <mxGeometry x="-220" y="125" width="20" height="30" as="geometry" />
        </mxCell>
        <mxCell id="b51r0Ibf-gpC-qulpR08-7" value="1" style="text;html=1;strokeColor=none;fillColor=none;align=center;verticalAlign=middle;whiteSpace=wrap;rounded=0;" parent="WIyWlLk6GJQsqaUBKTNV-1" vertex="1">
          <mxGeometry x="-310" width="20" height="30" as="geometry" />
        </mxCell>
        <mxCell id="b51r0Ibf-gpC-qulpR08-8" value="1" style="text;html=1;strokeColor=none;fillColor=none;align=center;verticalAlign=middle;whiteSpace=wrap;rounded=0;" parent="WIyWlLk6GJQsqaUBKTNV-1" vertex="1">
          <mxGeometry x="-1210" y="62" width="20" height="30" as="geometry" />
        </mxCell>
        <mxCell id="b51r0Ibf-gpC-qulpR08-9" value="1" style="text;html=1;strokeColor=none;fillColor=none;align=center;verticalAlign=middle;whiteSpace=wrap;rounded=0;" parent="WIyWlLk6GJQsqaUBKTNV-1" vertex="1">
          <mxGeometry x="-1140" y="53" width="20" height="30" as="geometry" />
        </mxCell>
        <mxCell id="b51r0Ibf-gpC-qulpR08-10" value="1" style="text;html=1;strokeColor=none;fillColor=none;align=center;verticalAlign=middle;whiteSpace=wrap;rounded=0;" parent="WIyWlLk6GJQsqaUBKTNV-1" vertex="1">
          <mxGeometry x="-975" y="10" width="20" height="30" as="geometry" />
        </mxCell>
        <mxCell id="ZCnHrs2GG1sbxFjUJOWf-11" style="edgeStyle=orthogonalEdgeStyle;rounded=0;orthogonalLoop=1;jettySize=auto;html=1;startArrow=open;startFill=0;endArrow=open;endFill=0;entryX=0.5;entryY=1;entryDx=0;entryDy=0;exitX=1;exitY=0.5;exitDx=0;exitDy=0;" parent="WIyWlLk6GJQsqaUBKTNV-1" source="ZCnHrs2GG1sbxFjUJOWf-45" target="34jW8y6ZJVeA6K0mkwZz-33" edge="1">
          <mxGeometry relative="1" as="geometry">
            <mxPoint x="-380" y="180" as="targetPoint" />
            <Array as="points">
              <mxPoint x="-445" y="407" />
              <mxPoint x="-380" y="407" />
              <mxPoint x="-380" y="250" />
              <mxPoint x="-442" y="250" />
              <mxPoint x="-442" y="220" />
              <mxPoint x="-445" y="220" />
              <mxPoint x="-445" y="226" />
            </Array>
            <mxPoint x="-410" y="407" as="sourcePoint" />
          </mxGeometry>
        </mxCell>
        <mxCell id="b51r0Ibf-gpC-qulpR08-12" value="1" style="text;html=1;strokeColor=none;fillColor=none;align=center;verticalAlign=middle;whiteSpace=wrap;rounded=0;" parent="WIyWlLk6GJQsqaUBKTNV-1" vertex="1">
          <mxGeometry x="-435" y="226" width="20" height="30" as="geometry" />
        </mxCell>
        <mxCell id="b51r0Ibf-gpC-qulpR08-13" value="1" style="text;html=1;strokeColor=none;fillColor=none;align=center;verticalAlign=middle;whiteSpace=wrap;rounded=0;" parent="WIyWlLk6GJQsqaUBKTNV-1" vertex="1">
          <mxGeometry x="-975" y="-118" width="20" height="30" as="geometry" />
        </mxCell>
        <mxCell id="b51r0Ibf-gpC-qulpR08-14" value="1" style="text;html=1;strokeColor=none;fillColor=none;align=center;verticalAlign=middle;whiteSpace=wrap;rounded=0;" parent="WIyWlLk6GJQsqaUBKTNV-1" vertex="1">
          <mxGeometry x="30" y="248" width="20" height="30" as="geometry" />
        </mxCell>
        <mxCell id="b51r0Ibf-gpC-qulpR08-15" value="1" style="text;html=1;strokeColor=none;fillColor=none;align=center;verticalAlign=middle;whiteSpace=wrap;rounded=0;" parent="WIyWlLk6GJQsqaUBKTNV-1" vertex="1">
          <mxGeometry x="60" y="-290" width="20" height="30" as="geometry" />
        </mxCell>
        <mxCell id="b51r0Ibf-gpC-qulpR08-16" value="1" style="text;html=1;strokeColor=none;fillColor=none;align=center;verticalAlign=middle;whiteSpace=wrap;rounded=0;" parent="WIyWlLk6GJQsqaUBKTNV-1" vertex="1">
          <mxGeometry x="375" y="218" width="20" height="30" as="geometry" />
        </mxCell>
        <mxCell id="b51r0Ibf-gpC-qulpR08-17" value="1" style="text;html=1;strokeColor=none;fillColor=none;align=center;verticalAlign=middle;whiteSpace=wrap;rounded=0;" parent="WIyWlLk6GJQsqaUBKTNV-1" vertex="1">
          <mxGeometry x="30" y="160" width="20" height="30" as="geometry" />
        </mxCell>
        <mxCell id="b51r0Ibf-gpC-qulpR08-18" value="1" style="text;html=1;strokeColor=none;fillColor=none;align=center;verticalAlign=middle;whiteSpace=wrap;rounded=0;" parent="WIyWlLk6GJQsqaUBKTNV-1" vertex="1">
          <mxGeometry x="450" y="180" width="20" height="30" as="geometry" />
        </mxCell>
        <mxCell id="b51r0Ibf-gpC-qulpR08-19" value="1" style="text;html=1;strokeColor=none;fillColor=none;align=center;verticalAlign=middle;whiteSpace=wrap;rounded=0;" parent="WIyWlLk6GJQsqaUBKTNV-1" vertex="1">
          <mxGeometry x="414" y="145" width="20" height="30" as="geometry" />
        </mxCell>
        <mxCell id="b51r0Ibf-gpC-qulpR08-20" value="1" style="text;html=1;strokeColor=none;fillColor=none;align=center;verticalAlign=middle;whiteSpace=wrap;rounded=0;" parent="WIyWlLk6GJQsqaUBKTNV-1" vertex="1">
          <mxGeometry x="490" y="175" width="20" height="30" as="geometry" />
        </mxCell>
        <mxCell id="b51r0Ibf-gpC-qulpR08-21" value="1" style="text;html=1;strokeColor=none;fillColor=none;align=center;verticalAlign=middle;whiteSpace=wrap;rounded=0;" parent="WIyWlLk6GJQsqaUBKTNV-1" vertex="1">
          <mxGeometry x="570" y="-70" width="20" height="30" as="geometry" />
        </mxCell>
        <mxCell id="b51r0Ibf-gpC-qulpR08-23" value="1" style="text;html=1;strokeColor=none;fillColor=none;align=center;verticalAlign=middle;whiteSpace=wrap;rounded=0;" parent="WIyWlLk6GJQsqaUBKTNV-1" vertex="1">
          <mxGeometry x="1210" y="-4" width="20" height="30" as="geometry" />
        </mxCell>
        <mxCell id="b51r0Ibf-gpC-qulpR08-24" value="1" style="text;html=1;strokeColor=none;fillColor=none;align=center;verticalAlign=middle;whiteSpace=wrap;rounded=0;" parent="WIyWlLk6GJQsqaUBKTNV-1" vertex="1">
          <mxGeometry x="1075" y="216" width="20" height="30" as="geometry" />
        </mxCell>
        <mxCell id="b51r0Ibf-gpC-qulpR08-26" value="1" style="text;html=1;strokeColor=none;fillColor=none;align=center;verticalAlign=middle;whiteSpace=wrap;rounded=0;" parent="WIyWlLk6GJQsqaUBKTNV-1" vertex="1">
          <mxGeometry x="1260" y="620" width="20" height="30" as="geometry" />
        </mxCell>
        <mxCell id="b51r0Ibf-gpC-qulpR08-27" value="1" style="text;html=1;strokeColor=none;fillColor=none;align=center;verticalAlign=middle;whiteSpace=wrap;rounded=0;" parent="WIyWlLk6GJQsqaUBKTNV-1" vertex="1">
          <mxGeometry x="1150" y="610" width="20" height="30" as="geometry" />
        </mxCell>
        <mxCell id="b51r0Ibf-gpC-qulpR08-28" value="1" style="text;html=1;strokeColor=none;fillColor=none;align=center;verticalAlign=middle;whiteSpace=wrap;rounded=0;" parent="WIyWlLk6GJQsqaUBKTNV-1" vertex="1">
          <mxGeometry x="60" y="-525" width="20" height="30" as="geometry" />
        </mxCell>
        <mxCell id="b51r0Ibf-gpC-qulpR08-29" value="1" style="text;html=1;strokeColor=none;fillColor=none;align=center;verticalAlign=middle;whiteSpace=wrap;rounded=0;" parent="WIyWlLk6GJQsqaUBKTNV-1" vertex="1">
          <mxGeometry x="60" y="-490" width="20" height="30" as="geometry" />
        </mxCell>
        <mxCell id="b51r0Ibf-gpC-qulpR08-32" value="1" style="text;html=1;strokeColor=none;fillColor=none;align=center;verticalAlign=middle;whiteSpace=wrap;rounded=0;" parent="WIyWlLk6GJQsqaUBKTNV-1" vertex="1">
          <mxGeometry x="-1030" y="160" width="20" height="30" as="geometry" />
        </mxCell>
        <mxCell id="b51r0Ibf-gpC-qulpR08-33" value="- controlador_produto: Controlador_Produto" style="text;align=left;verticalAlign=top;spacingLeft=4;spacingRight=4;overflow=hidden;rotatable=0;points=[[0,0.5],[1,0.5]];portConstraint=eastwest;rounded=0;" parent="WIyWlLk6GJQsqaUBKTNV-1" vertex="1">
          <mxGeometry x="-820" y="-160" width="250" height="26" as="geometry" />
        </mxCell>
        <mxCell id="b51r0Ibf-gpC-qulpR08-34" value="- controlador_pedido: Controlador_Pedido" style="text;align=left;verticalAlign=top;spacingLeft=4;spacingRight=4;overflow=hidden;rotatable=0;points=[[0,0.5],[1,0.5]];portConstraint=eastwest;rounded=0;" parent="WIyWlLk6GJQsqaUBKTNV-1" vertex="1">
          <mxGeometry x="-460" y="-203" width="250" height="26" as="geometry" />
        </mxCell>
        <mxCell id="b51r0Ibf-gpC-qulpR08-36" value="- controlador_cliente: Controlador_Cliente" style="text;align=left;verticalAlign=top;spacingLeft=4;spacingRight=4;overflow=hidden;rotatable=0;points=[[0,0.5],[1,0.5]];portConstraint=eastwest;rounded=0;" parent="WIyWlLk6GJQsqaUBKTNV-1" vertex="1">
          <mxGeometry x="346" y="-240" width="244" height="26" as="geometry" />
        </mxCell>
        <mxCell id="b51r0Ibf-gpC-qulpR08-37" value="- controlador_funcionario: Controlador_Funcionario" style="text;align=left;verticalAlign=top;spacingLeft=4;spacingRight=4;overflow=hidden;rotatable=0;points=[[0,0.5],[1,0.5]];portConstraint=eastwest;rounded=0;" parent="WIyWlLk6GJQsqaUBKTNV-1" vertex="1">
          <mxGeometry x="1241" width="290" height="26" as="geometry" />
        </mxCell>
        <mxCell id="b51r0Ibf-gpC-qulpR08-42" value="1" style="text;html=1;strokeColor=none;fillColor=none;align=center;verticalAlign=middle;whiteSpace=wrap;rounded=0;" parent="WIyWlLk6GJQsqaUBKTNV-1" vertex="1">
          <mxGeometry x="-975" y="426" width="20" height="30" as="geometry" />
        </mxCell>
        <mxCell id="b51r0Ibf-gpC-qulpR08-43" value="1" style="text;html=1;strokeColor=none;fillColor=none;align=center;verticalAlign=middle;whiteSpace=wrap;rounded=0;" parent="WIyWlLk6GJQsqaUBKTNV-1" vertex="1">
          <mxGeometry x="-950" y="400" width="20" height="30" as="geometry" />
        </mxCell>
        <mxCell id="b51r0Ibf-gpC-qulpR08-44" value="1" style="text;html=1;strokeColor=none;fillColor=none;align=center;verticalAlign=middle;whiteSpace=wrap;rounded=0;" parent="WIyWlLk6GJQsqaUBKTNV-1" vertex="1">
          <mxGeometry x="-1290" y="430" width="20" height="30" as="geometry" />
        </mxCell>
        <mxCell id="b51r0Ibf-gpC-qulpR08-45" value="1" style="text;html=1;strokeColor=none;fillColor=none;align=center;verticalAlign=middle;whiteSpace=wrap;rounded=0;" parent="WIyWlLk6GJQsqaUBKTNV-1" vertex="1">
          <mxGeometry x="-1310" y="410" width="20" height="30" as="geometry" />
        </mxCell>
        <mxCell id="b51r0Ibf-gpC-qulpR08-55" value="1" style="text;html=1;strokeColor=none;fillColor=none;align=center;verticalAlign=middle;whiteSpace=wrap;rounded=0;" parent="WIyWlLk6GJQsqaUBKTNV-1" vertex="1">
          <mxGeometry x="-190" y="554" width="20" height="30" as="geometry" />
        </mxCell>
        <mxCell id="c0PUC_M8s5G9LCttHtRY-7" value="1" style="text;html=1;strokeColor=none;fillColor=none;align=center;verticalAlign=middle;whiteSpace=wrap;rounded=0;" parent="WIyWlLk6GJQsqaUBKTNV-1" vertex="1">
          <mxGeometry x="130" y="226" width="20" height="30" as="geometry" />
        </mxCell>
        <mxCell id="c0PUC_M8s5G9LCttHtRY-8" value="1" style="text;html=1;strokeColor=none;fillColor=none;align=center;verticalAlign=middle;whiteSpace=wrap;rounded=0;" parent="WIyWlLk6GJQsqaUBKTNV-1" vertex="1">
          <mxGeometry x="300" y="-103" width="20" height="30" as="geometry" />
        </mxCell>
        <mxCell id="c0PUC_M8s5G9LCttHtRY-24" value="1" style="text;html=1;strokeColor=none;fillColor=none;align=center;verticalAlign=middle;whiteSpace=wrap;rounded=0;" parent="WIyWlLk6GJQsqaUBKTNV-1" vertex="1">
          <mxGeometry x="-190" y="478" width="20" height="30" as="geometry" />
        </mxCell>
        <mxCell id="c0PUC_M8s5G9LCttHtRY-6" style="edgeStyle=orthogonalEdgeStyle;rounded=0;orthogonalLoop=1;jettySize=auto;html=1;exitX=0;exitY=0.5;exitDx=0;exitDy=0;entryX=0.205;entryY=-0.001;entryDx=0;entryDy=0;entryPerimeter=0;" parent="WIyWlLk6GJQsqaUBKTNV-1" source="b51r0Ibf-gpC-qulpR08-50" target="KrR3Ijgz4C3MExihU3qD-1" edge="1">
          <mxGeometry relative="1" as="geometry">
            <mxPoint x="160" y="230" as="targetPoint" />
          </mxGeometry>
        </mxCell>
        <mxCell id="KKpDPRDp1r2dlKf29045-28" value="Tela_Geral" style="swimlane;fontStyle=0;align=center;verticalAlign=top;childLayout=stackLayout;horizontal=1;startSize=26;horizontalStack=0;resizeParent=1;resizeLast=0;collapsible=1;marginBottom=0;rounded=0;shadow=0;strokeWidth=1;fillColor=#f8cecc;strokeColor=#b85450;" parent="WIyWlLk6GJQsqaUBKTNV-1" vertex="1">
          <mxGeometry x="295" y="-830" width="330" height="90" as="geometry">
            <mxRectangle x="550" y="140" width="160" height="26" as="alternateBounds" />
          </mxGeometry>
        </mxCell>
        <mxCell id="KKpDPRDp1r2dlKf29045-29" value="" style="line;html=1;strokeWidth=1;align=left;verticalAlign=middle;spacingTop=-1;spacingLeft=3;spacingRight=3;rotatable=0;labelPosition=right;points=[];portConstraint=eastwest;rounded=0;" parent="KKpDPRDp1r2dlKf29045-28" vertex="1">
          <mxGeometry y="26" width="330" height="8" as="geometry" />
        </mxCell>
        <mxCell id="KKpDPRDp1r2dlKf29045-30" value="+ &lt;&lt;create&gt;&gt; __init__()" style="text;align=left;verticalAlign=top;spacingLeft=4;spacingRight=4;overflow=hidden;rotatable=0;points=[[0,0.5],[1,0.5]];portConstraint=eastwest;rounded=0;" parent="KKpDPRDp1r2dlKf29045-28" vertex="1">
          <mxGeometry y="34" width="330" height="26" as="geometry" />
        </mxCell>
        <mxCell id="KKpDPRDp1r2dlKf29045-31" value="+ abre_tela_geral()&#xa;" style="text;align=left;verticalAlign=top;spacingLeft=4;spacingRight=4;overflow=hidden;rotatable=0;points=[[0,0.5],[1,0.5]];portConstraint=eastwest;rounded=0;" parent="KKpDPRDp1r2dlKf29045-28" vertex="1">
          <mxGeometry y="60" width="330" height="26" as="geometry" />
        </mxCell>
        <mxCell id="KKpDPRDp1r2dlKf29045-36" style="edgeStyle=orthogonalEdgeStyle;rounded=0;orthogonalLoop=1;jettySize=auto;html=1;startArrow=open;startFill=0;endArrow=open;endFill=0;" parent="WIyWlLk6GJQsqaUBKTNV-1" edge="1">
          <mxGeometry relative="1" as="geometry">
            <mxPoint x="60" y="-630" as="targetPoint" />
            <Array as="points">
              <mxPoint x="220" y="-760" />
              <mxPoint x="220" y="-780" />
              <mxPoint x="90" y="-780" />
              <mxPoint x="90" y="-622" />
              <mxPoint x="60" y="-622" />
            </Array>
            <mxPoint x="290" y="-760" as="sourcePoint" />
          </mxGeometry>
        </mxCell>
        <mxCell id="KKpDPRDp1r2dlKf29045-38" value="1" style="text;html=1;strokeColor=none;fillColor=none;align=center;verticalAlign=middle;whiteSpace=wrap;rounded=0;" parent="WIyWlLk6GJQsqaUBKTNV-1" vertex="1">
          <mxGeometry x="260" y="-790" width="20" height="30" as="geometry" />
        </mxCell>
        <mxCell id="KKpDPRDp1r2dlKf29045-39" value="1" style="text;html=1;strokeColor=none;fillColor=none;align=center;verticalAlign=middle;whiteSpace=wrap;rounded=0;" parent="WIyWlLk6GJQsqaUBKTNV-1" vertex="1">
          <mxGeometry x="70" y="-660" width="20" height="30" as="geometry" />
        </mxCell>
        <mxCell id="KKpDPRDp1r2dlKf29045-40" value="- tela_geral" style="edgeLabel;resizable=0;html=1;align=left;verticalAlign=bottom;rounded=0;" parent="WIyWlLk6GJQsqaUBKTNV-1" connectable="0" vertex="1">
          <mxGeometry x="70" y="-600" as="geometry" />
        </mxCell>
      </root>
    </mxGraphModel>
  </diagram>
</mxfile>
